<svg version="1.1" id="Layer_1" xmlns="http://www.w3.org/2000/svg" xmlns:xlink="http://www.w3.org/1999/xlink" x="0px" y="0px"
	 width="100%" viewBox="0 0 500 178" enable-background="new 0 0 500 178" xml:space="preserve">
<path fill="#FEFEFD" opacity="1.000000" stroke="none" 
	d="
M380.000000,179.000000 
	C254.833328,179.000000 130.166656,178.980423 5.500086,179.094330 
	C1.750502,179.097748 0.894306,178.250488 0.903544,174.499756 
	C1.042700,118.000107 1.039472,61.499905 0.902882,5.000235 
	C0.894602,1.575218 1.576356,0.903045 5.000062,0.905309 
	C168.999985,1.013770 333.000000,1.013770 496.999939,0.905309 
	C500.423645,0.903045 501.105377,1.575224 501.097107,5.000234 
	C500.960663,61.666573 500.960632,118.333427 501.097107,174.999771 
	C501.105347,178.424774 500.425781,179.112305 496.999603,179.098602 
	C458.166870,178.943161 419.333344,179.000000 380.000000,179.000000 
z"/>
<path fill="#DF2D48" opacity="1.000000" stroke="none" 
	d="
M141.178482,137.779785 
	C141.032074,138.453964 140.892151,138.710114 140.440308,138.991852 
	C139.849030,139.250580 139.501984,139.481750 139.049347,140.048889 
	C138.886917,140.594482 138.767929,140.802765 138.375916,141.014908 
	C137.781891,141.317551 137.368286,141.321686 136.739838,140.786865 
	C136.409271,140.333344 136.300934,140.135681 136.030701,139.645996 
	C134.872452,137.836105 133.111359,138.515518 131.798538,137.929749 
	C130.677307,137.429459 128.843811,137.156448 130.940186,135.095551 
	C135.447327,133.994171 135.434235,130.758591 135.436142,127.519501 
	C135.448044,107.276207 135.450134,87.032898 135.432938,66.789612 
	C135.427734,60.652302 135.612122,54.513039 135.283203,47.940350 
	C135.271027,47.080566 135.445831,46.588669 135.236267,46.250427 
	C134.863037,45.647991 134.946960,46.511974 134.337692,46.695591 
	C127.800941,47.943954 121.612160,47.480972 114.994537,47.193512 
	C111.761353,46.286125 108.950119,46.033367 105.682472,47.070595 
	C96.387283,47.847557 87.520973,47.627987 78.206490,47.250603 
	C75.177307,46.407051 72.587151,46.031456 69.523315,47.122559 
	C64.111366,47.899632 59.114647,47.588390 54.134541,47.565044 
	C50.493786,47.547974 48.595818,48.781342 48.595753,52.720268 
	C48.595329,78.324661 48.635998,103.929192 48.572163,129.533356 
	C48.560532,134.197922 51.366482,134.420181 54.799175,134.416306 
	C73.088112,134.395645 91.377129,134.395828 109.666100,134.412674 
	C112.155731,134.414963 114.657829,134.265594 117.540848,134.938599 
	C119.741043,136.139435 119.313385,137.032425 117.730331,137.785538 
	C116.366158,138.434540 114.827187,138.218369 113.067719,138.772278 
	C107.547676,142.607254 104.188225,148.287033 98.334381,151.675018 
	C97.218216,151.783875 96.534309,151.593735 95.770966,150.785873 
	C95.408051,147.159531 98.384506,145.939926 100.026695,143.833176 
	C101.309029,142.188095 103.399963,141.216629 103.856812,138.797104 
	C95.506668,138.034424 87.317390,138.651215 78.903992,138.377274 
	C79.274803,141.538986 82.004578,142.902008 83.779381,145.000702 
	C85.049126,146.502167 86.798882,147.617920 87.302704,150.056168 
	C86.986191,151.182388 86.376076,151.509521 85.222290,151.512741 
	C81.228050,149.287750 78.667847,145.944244 75.759155,143.010117 
	C73.258751,140.487823 70.546364,139.138550 66.933029,139.252655 
	C61.340092,139.429276 55.736263,139.230133 49.282295,139.356812 
	C56.535252,145.954102 64.299301,149.848862 72.719589,152.565475 
	C76.034248,153.634872 79.551430,154.015015 83.051956,155.702621 
	C83.720856,156.698166 83.753922,157.457031 83.213837,158.541107 
	C58.108627,154.667313 39.968800,141.485764 29.161119,118.586098 
	C26.386177,112.706451 24.743816,106.447578 23.816589,99.585983 
	C24.079411,98.742447 24.516310,98.499176 25.439697,98.512939 
	C28.082159,100.028374 28.063080,102.521812 28.558117,104.746719 
	C30.576918,113.820107 34.349014,122.072617 39.979023,129.471436 
	C40.683449,130.397186 41.336388,131.367065 42.190315,132.170609 
	C42.463154,132.427353 42.766987,132.493408 43.572632,132.214767 
	C43.758545,125.812767 43.928555,119.227921 43.438614,112.645660 
	C43.267239,110.343269 41.429604,108.913414 39.982635,107.305786 
	C37.105358,104.109055 33.392773,101.654167 31.328510,97.296295 
	C31.263325,96.116776 31.503933,95.416672 32.513466,94.795731 
	C37.086441,96.259583 38.953968,100.698227 43.519638,103.249336 
	C43.273998,94.001389 44.810253,85.257835 42.316406,76.336243 
	C41.545021,75.847733 41.162670,75.487389 40.782303,74.652542 
	C43.929649,69.721954 43.567848,64.544243 43.564404,59.398346 
	C43.561401,54.914196 43.265892,50.418808 43.952858,45.525948 
	C44.416187,44.269794 44.994076,43.647411 46.196083,43.081802 
	C52.389805,42.246925 58.225353,42.434830 64.009811,42.713863 
	C69.091721,42.959015 72.964333,41.370834 76.382843,37.733173 
	C78.877884,35.078182 81.230934,32.256916 84.450287,29.760771 
	C85.984192,29.293749 86.933929,29.533506 87.543892,31.088118 
	C86.567741,36.125725 81.760811,38.018890 79.399544,42.695786 
	C87.979828,42.699131 96.135399,42.709023 104.398849,42.685261 
	C104.288368,40.479240 101.514107,39.272968 103.310989,36.817635 
	C104.504921,36.455029 105.427757,36.603481 105.943291,37.227360 
	C110.533722,42.782520 116.742798,42.819397 123.164581,42.611794 
	C127.781906,42.462524 132.424362,42.296432 137.457428,42.949333 
	C138.409470,43.284901 138.880096,43.603596 139.516724,44.376854 
	C141.066299,50.637794 140.456390,56.635326 140.293640,62.564053 
	C140.146683,67.917717 141.407639,72.142578 145.620987,75.742783 
	C148.084747,77.848015 150.628494,80.105522 152.508560,83.387695 
	C152.946548,84.876190 152.883148,85.925507 151.826843,87.060852 
	C146.731400,85.902077 144.818726,81.086723 140.289688,78.134163 
	C140.400726,86.563171 140.069855,94.541206 140.557480,102.531624 
	C140.610764,103.404655 141.157791,104.041267 142.346603,104.521431 
	C143.092514,105.027130 143.349747,105.456627 143.436325,106.376053 
	C140.516113,110.535194 140.249969,114.885254 140.401047,119.402397 
	C140.560333,124.164886 140.385178,128.935715 140.484390,134.091904 
	C140.543945,135.519470 141.213745,136.389496 141.178482,137.779785 
z"/>
<path fill="#3BA858" opacity="1.000000" stroke="none" 
	d="
M291.098785,43.930248 
	C296.048096,42.946846 297.143433,44.878067 296.991058,49.216457 
	C296.653229,58.836395 296.921783,68.476662 296.843170,78.107826 
	C296.832520,79.415489 297.750000,81.418800 295.601379,81.851402 
	C293.876404,82.198692 290.887451,82.754608 290.477417,81.543457 
	C289.444092,78.491318 288.696625,79.738625 287.009430,80.819611 
	C280.791962,84.803177 273.343658,81.824532 271.230072,74.583473 
	C270.042847,70.516060 270.027313,66.355247 271.209747,62.284885 
	C273.505646,54.381741 281.057861,52.107006 289.459625,56.980877 
	C290.861542,52.677193 288.872437,48.124466 291.098785,43.930248 
z"/>
<path fill="#3DA859" opacity="1.000000" stroke="none" 
	d="
M194.181122,72.193100 
	C196.082870,70.255959 196.665466,72.209396 197.457138,72.959450 
	C200.341537,75.692207 203.741470,76.555008 207.578751,76.025589 
	C209.613419,75.744881 210.955551,74.633156 211.263596,72.553925 
	C211.594498,70.320229 210.855392,68.567299 208.557938,67.870064 
	C206.178238,67.147881 203.750000,66.587387 201.353516,65.918472 
	C195.120819,64.178764 191.888489,60.352531 192.207504,55.128582 
	C192.528625,49.870117 196.136475,46.443344 202.528839,45.423893 
	C206.585602,44.776920 210.541382,45.312527 214.162857,47.218670 
	C215.718277,48.037354 218.233826,48.838196 216.226395,51.630440 
	C214.903458,53.470600 213.935516,55.283634 211.244995,53.156399 
	C209.072906,51.439064 206.280426,51.433193 203.581787,51.718533 
	C201.399139,51.949318 199.611908,52.826717 199.502243,55.274940 
	C199.408417,57.369926 200.695633,58.641872 202.706375,59.139759 
	C205.284378,59.778111 207.896622,60.295235 210.444046,61.036644 
	C216.447144,62.783813 219.327423,66.680672 218.907257,72.291695 
	C218.490601,77.856064 215.069916,81.287086 208.896454,82.267456 
	C203.962433,83.050987 199.286194,82.280853 194.973129,79.707588 
	C191.670319,77.737061 190.339905,75.423599 194.181122,72.193100 
z"/>
<path fill="#3BA757" opacity="1.000000" stroke="none" 
	d="
M257.265564,80.451706 
	C255.520477,78.474297 255.088821,80.689102 254.198212,81.169868 
	C250.120636,83.371056 244.878021,82.844940 241.703568,79.705956 
	C237.210510,75.263123 236.548569,64.283455 240.434158,58.649761 
	C243.829285,53.727158 249.428909,53.018414 257.283142,56.818012 
	C257.283142,53.332726 257.421997,50.058372 257.242950,46.801495 
	C257.073853,43.725777 258.953613,43.876965 261.081909,43.776878 
	C263.452179,43.665409 264.269073,44.498447 264.246979,46.898640 
	C264.148895,57.551369 264.258789,68.205933 264.176483,78.858932 
	C264.147614,82.590134 262.135132,83.122459 257.265564,80.451706 
z"/>
<path fill="#3BA858" opacity="1.000000" stroke="none" 
	d="
M494.980347,62.218708 
	C497.744385,68.111107 497.972504,73.661545 493.931335,78.496262 
	C490.056183,83.132416 484.626190,83.065399 479.196014,81.979164 
	C476.484619,81.436783 474.188995,80.048805 472.760986,77.651543 
	C472.015503,76.400070 470.065460,74.721138 472.265991,73.466583 
	C473.930176,72.517792 476.075836,70.126678 478.124908,73.521179 
	C480.115997,76.819702 483.432983,76.810760 486.538055,75.664734 
	C489.299622,74.645485 489.545959,71.918739 489.436188,69.338707 
	C489.347931,67.264069 488.756165,65.254524 486.705139,64.361053 
	C484.477722,63.390747 481.889832,63.173603 480.172974,65.075134 
	C478.118591,67.350433 475.675446,67.529060 473.446320,66.512611 
	C471.168030,65.473770 472.587921,62.935326 472.581970,61.083904 
	C472.570221,57.427769 473.028534,53.765152 472.923615,50.115822 
	C472.836029,47.069016 473.503387,45.578983 476.998901,45.810356 
	C481.637512,46.117397 486.311829,45.898586 490.970673,45.879845 
	C493.006775,45.871651 494.854309,45.587002 494.904358,48.771595 
	C494.958313,52.201378 492.984772,52.016289 490.728516,51.944225 
	C489.398743,51.901760 488.066498,51.936619 486.735382,51.936668 
	C478.516449,51.936966 478.516449,51.936962 479.307007,60.293068 
	C486.391479,56.529572 489.978882,56.895023 494.980347,62.218708 
z"/>
<path fill="#3DA859" opacity="1.000000" stroke="none" 
	d="
M311.676239,77.726982 
	C312.178223,81.293137 310.826416,82.085213 307.789825,82.132431 
	C304.334564,82.186180 304.624237,80.252853 304.631409,78.014496 
	C304.663879,67.864952 304.713593,57.714478 304.599976,47.566101 
	C304.570587,44.938770 305.055511,43.674599 308.106079,43.713692 
	C311.025177,43.751095 311.882141,44.775787 311.718750,47.526691 
	C311.532257,50.665955 311.675568,53.824806 311.675568,56.905476 
	C313.376251,57.807747 313.838623,56.231323 314.685394,55.733746 
	C321.795959,51.555450 328.746948,55.195889 329.063171,63.457275 
	C329.260345,68.608101 328.976318,73.778229 329.203308,78.926689 
	C329.332428,81.856178 327.892456,82.029945 325.593933,82.084137 
	C323.037659,82.144394 322.028839,81.379143 322.143219,78.704346 
	C322.327820,74.386307 322.170929,70.054298 322.190247,65.728333 
	C322.203247,62.815907 321.641144,60.217197 318.080322,60.091145 
	C314.601196,59.967983 312.255310,61.776661 311.961548,65.298203 
	C311.630493,69.266884 311.751892,73.273300 311.676239,77.726982 
z"/>
<path fill="#3DA859" opacity="1.000000" stroke="none" 
	d="
M376.571869,81.788231 
	C374.281189,82.519394 372.354309,82.728584 370.318726,82.268280 
	C366.590515,81.425240 364.547577,79.116966 364.092743,75.412300 
	C363.633728,71.673714 365.076385,68.747345 368.606750,67.378906 
	C371.374451,66.306076 374.370605,65.832939 377.243561,65.017113 
	C378.791290,64.577621 380.076233,63.695442 379.665375,61.838390 
	C379.325775,60.303444 378.007446,59.977798 376.573059,59.887394 
	C374.132263,59.733566 371.895050,60.309345 370.035400,61.851562 
	C368.425873,63.186340 367.374878,63.256508 366.060120,61.378849 
	C364.619354,59.321232 365.207214,58.169609 367.064911,56.958401 
	C370.720306,54.575085 374.682709,53.664051 378.967133,54.291706 
	C383.489380,54.954205 386.228485,57.521633 386.559235,62.178177 
	C386.771240,65.163391 386.599304,68.174042 386.735687,71.167084 
	C386.833710,73.317558 385.895874,75.732414 389.118652,76.961716 
	C390.723114,77.573715 390.654236,80.320557 389.522552,81.276291 
	C387.667725,82.842728 384.563721,82.924652 383.076233,81.288033 
	C380.460938,78.410507 378.861237,79.795601 376.571869,81.788231 
z"/>
<path fill="#3AA757" opacity="1.000000" stroke="none" 
	d="
M457.991669,65.829926 
	C457.991852,63.198368 458.099365,61.031712 457.964539,58.880241 
	C457.798981,56.238350 458.048340,54.625175 461.543854,54.648590 
	C465.182800,54.672962 465.003693,56.596470 464.977631,59.065285 
	C464.909210,65.544334 464.993988,72.025047 464.917786,78.503929 
	C464.904022,79.675888 465.679077,81.462036 463.808044,81.840759 
	C462.058533,82.194893 459.034973,82.705856 458.656250,81.484734 
	C457.687347,78.360573 457.014648,79.474686 455.320831,80.777847 
	C452.114868,83.244392 448.417389,83.092598 444.946503,81.440567 
	C441.726715,79.908058 440.877472,76.829552 440.865326,73.484444 
	C440.846619,68.334091 440.965546,63.178837 440.771210,58.035297 
	C440.668243,55.311172 441.772675,54.696304 444.258087,54.710659 
	C446.732971,54.724949 447.910889,55.334396 447.800201,58.066013 
	C447.625397,62.378670 447.805542,66.704468 447.743866,71.023399 
	C447.701996,73.957893 448.225586,76.523529 451.783478,76.659538 
	C455.059540,76.784775 457.116211,74.930984 457.709991,71.760231 
	C458.042358,69.985336 457.912903,68.123962 457.991669,65.829926 
z"/>
<path fill="#3CA858" opacity="1.000000" stroke="none" 
	d="
M413.397644,70.056335 
	C414.927490,75.081398 414.171539,79.013474 409.441315,81.356415 
	C404.865295,83.622986 396.409912,82.373878 393.438599,79.211159 
	C392.293182,77.991928 392.092041,76.963356 393.415375,75.911629 
	C394.530060,75.025696 395.076538,72.479988 397.262939,74.312408 
	C399.247406,75.975594 401.393372,77.094948 404.050934,76.911079 
	C405.661102,76.799667 407.101990,76.246437 407.289520,74.437965 
	C407.449768,72.892868 406.375488,72.040810 404.966339,71.632408 
	C402.736725,70.986229 400.441711,70.511002 398.287109,69.673401 
	C394.878235,68.348236 392.826965,65.868385 393.083527,62.028778 
	C393.334747,58.269604 395.514191,56.022789 399.037720,54.893154 
	C402.858582,53.668186 406.616333,53.781559 410.181213,55.576340 
	C411.445160,56.212688 413.940643,56.759327 412.484314,59.009632 
	C411.470337,60.576469 410.249878,63.115391 407.477905,60.802620 
	C406.779236,60.219700 405.648315,59.930298 404.707306,59.909977 
	C402.850250,59.869884 400.285736,59.020077 399.907623,61.920761 
	C399.587280,64.378265 401.862793,64.584595 403.626343,65.029373 
	C407.140320,65.915627 410.927063,66.254959 413.397644,70.056335 
z"/>
<path fill="#3AA757" opacity="1.000000" stroke="none" 
	d="
M340.268555,55.193954 
	C342.803131,61.484940 344.976074,67.555527 347.514069,74.645981 
	C349.664185,68.520134 351.476868,63.311722 353.324738,58.115822 
	C353.922058,56.436279 354.270355,54.747704 356.826935,54.702045 
	C360.181122,54.642151 361.816803,54.936741 360.142395,58.963730 
	C357.410156,65.534866 355.013824,72.259186 352.791534,79.022614 
	C351.828033,81.954895 349.981903,82.119537 347.517426,82.053421 
	C345.168579,81.990410 343.131134,82.208031 342.149567,79.161194 
	C340.169952,73.016418 337.775665,67.004898 335.538879,60.943424 
	C333.186188,54.567879 333.179230,54.570442 340.268555,55.193954 
z"/>
<path fill="#3AA757" opacity="1.000000" stroke="none" 
	d="
M420.990051,51.184727 
	C422.103851,47.774475 424.962036,48.620632 426.890350,48.684544 
	C428.678802,48.743816 427.842651,51.125355 427.886475,52.465687 
	C427.987183,55.543797 430.222473,54.661701 431.855194,54.712761 
	C433.927338,54.777565 435.850433,54.535824 435.743744,57.679657 
	C435.640503,60.722664 433.555389,60.246696 431.901703,60.043388 
	C428.416138,59.614861 427.599548,61.216881 427.882477,64.309410 
	C428.093628,66.617188 428.015015,68.964088 427.903625,71.285789 
	C427.738007,74.737740 428.744690,76.969299 432.717896,76.051880 
	C435.163269,75.487236 435.493347,77.156036 435.977386,78.745171 
	C436.680420,81.053360 435.080383,81.569550 433.381958,82.072777 
	C426.299347,84.171310 421.182678,80.440643 420.995636,72.957855 
	C420.920898,69.967705 420.969330,66.974266 420.976318,63.982361 
	C420.980927,62.011688 421.432617,59.888256 418.213745,59.984821 
	C416.461273,60.037395 416.927216,58.381382 416.894196,57.318981 
	C416.859283,56.194481 416.682617,54.739941 418.437378,54.808266 
	C420.879974,54.903366 421.115387,53.446087 420.990051,51.184727 
z"/>
<path fill="#DF324D" opacity="1.000000" stroke="none" 
	d="
M47.560173,43.574646 
	C46.635609,44.106281 45.967915,44.372070 45.096542,44.940357 
	C42.089043,49.710114 38.377178,53.531147 35.804008,58.171612 
	C31.678011,65.612450 28.764076,73.436562 27.747841,82.296158 
	C27.434578,82.830727 27.270115,83.020515 26.743614,83.317017 
	C25.586275,83.387321 24.953339,83.012123 24.090454,82.260551 
	C28.312508,50.761673 50.725403,28.026472 82.541031,22.815388 
	C83.336227,23.139978 83.540092,23.593060 83.490364,24.498976 
	C82.304382,26.582380 80.461052,26.834814 78.695396,27.257616 
	C67.069374,30.041578 56.604343,35.062294 47.560173,43.574646 
z"/>
<path fill="#40AA5C" opacity="1.000000" stroke="none" 
	d="
M231.564636,55.909943 
	C231.663742,63.773403 231.539246,71.230293 231.753769,78.677414 
	C231.844543,81.828888 230.333420,82.011925 227.845718,82.105591 
	C225.069336,82.210129 224.536392,81.054649 224.588089,78.609901 
	C224.717636,72.484497 224.626892,66.354500 224.630722,60.226349 
	C224.634659,53.940403 225.050156,53.655853 231.564636,55.909943 
z"/>
<path fill="#191919" opacity="1.000000" stroke="none" 
	d="
M306.420776,117.423645 
	C305.882507,116.350739 305.288177,115.558228 305.331116,114.801895 
	C305.637970,109.397812 309.625305,105.053566 309.180115,99.079498 
	C308.987762,96.498711 314.000488,96.043053 316.782684,97.808937 
	C319.792084,99.719009 319.933960,103.204269 317.384369,105.009399 
	C310.884277,109.611496 317.393829,111.111572 318.654358,114.261192 
	C319.237579,113.566498 319.463989,113.340408 319.639801,113.080177 
	C320.606628,111.649361 319.044708,108.286407 321.179291,108.614746 
	C323.611053,108.988777 322.448425,112.347794 321.720123,113.653824 
	C319.957336,116.814751 322.099152,117.852432 324.130554,119.666145 
	C318.282318,117.302261 311.936554,123.340012 306.420776,117.423645 
z"/>
<path fill="#1E1E1E" opacity="1.000000" stroke="none" 
	d="
M335.616486,113.551361 
	C337.344421,108.627869 338.901489,104.072067 340.491913,99.527931 
	C340.919312,98.306770 341.173309,97.033836 343.032318,97.004684 
	C345.017365,96.973557 345.532898,98.126816 346.045685,99.643639 
	C348.066376,105.620773 350.179291,111.566826 352.178284,117.551025 
	C352.420380,118.275742 353.732239,119.336334 352.083649,119.939354 
	C350.726746,120.435684 350.119751,119.587837 349.527252,118.363869 
	C347.629944,114.444473 343.378632,112.768730 339.411652,113.885002 
	C337.652374,114.380051 337.892792,115.876877 337.316559,116.938477 
	C336.653748,118.159576 336.752686,120.598541 334.790497,119.854324 
	C332.509521,118.989182 334.625702,117.196854 334.849518,115.818657 
	C334.954651,115.171051 335.249359,114.554214 335.616486,113.551361 
z"/>
<path fill="#1D1D1D" opacity="1.000000" stroke="none" 
	d="
M222.470306,113.574257 
	C221.881195,115.187943 221.408554,116.431763 221.058975,117.709259 
	C220.677963,119.101585 220.150070,120.091133 218.413834,120.088440 
	C216.678146,120.085754 216.258499,119.094322 215.797134,117.708374 
	C213.808060,111.733185 211.694260,105.799614 209.652695,99.841698 
	C209.326843,98.890762 208.074219,97.612045 210.072357,97.136986 
	C211.581390,96.778198 211.926041,98.052055 212.318375,99.203148 
	C214.028717,104.221497 215.783127,109.224922 217.548248,114.224342 
	C217.751450,114.799904 218.121460,115.316582 218.682632,116.359642 
	C220.594055,110.720764 222.271591,105.530075 224.144104,100.410698 
	C224.638336,99.059486 224.627106,96.378052 226.982239,97.245827 
	C229.098465,98.025574 227.111328,99.846176 226.787033,100.982574 
	C225.606567,105.118980 224.053558,109.149063 222.470306,113.574257 
z"/>
<path fill="#1C1C1C" opacity="1.000000" stroke="none" 
	d="
M468.276306,114.876633 
	C466.929169,111.424500 465.741150,108.332436 464.559723,105.237854 
	C464.238770,104.397263 463.289185,103.346672 464.845184,102.888298 
	C465.887909,102.581100 466.632263,103.185272 467.056824,104.328453 
	C468.466736,108.124725 469.992523,111.877991 471.925354,116.796623 
	C473.748840,112.057755 475.137695,108.433174 476.539917,104.813789 
	C476.952942,103.747650 477.298676,102.287445 478.852325,102.956100 
	C480.657898,103.733162 479.082855,105.035278 478.796265,105.822983 
	C476.758301,111.424316 474.518768,116.952309 472.342651,122.503365 
	C471.393921,124.923561 470.139862,127.061867 467.168335,127.179115 
	C465.922638,127.228271 463.927948,127.815651 463.675934,126.310326 
	C463.292297,124.018776 465.453796,125.231026 466.524292,124.986389 
	C469.573700,124.289520 470.468109,122.183311 469.982117,119.420021 
	C469.728729,117.979294 468.968933,116.627640 468.276306,114.876633 
z"/>
<path fill="#191919" opacity="1.000000" stroke="none" 
	d="
M240.839005,117.730080 
	C239.234680,120.994133 236.308655,120.658463 233.639908,119.762733 
	C231.354721,118.995743 230.662537,116.784439 231.018219,114.424828 
	C231.470459,111.424858 233.795944,110.575813 236.308151,109.980659 
	C237.272141,109.752289 238.234299,109.514221 239.190598,109.255783 
	C240.393570,108.930695 241.375000,108.353767 241.238464,106.899643 
	C241.075287,105.161476 239.794601,104.849472 238.377701,104.869217 
	C237.556839,104.880669 236.731873,105.156998 235.919754,105.112686 
	C234.509018,105.035690 233.273300,108.659760 232.154114,105.852226 
	C231.389542,103.934235 234.141312,103.271049 235.827179,102.818008 
	C241.226593,101.367073 243.864334,103.548279 244.125992,109.204506 
	C244.287674,112.699348 242.580261,116.659714 246.638443,119.321007 
	C244.244476,120.764015 242.883026,119.834381 241.388519,118.087128 
	C240.025253,117.140190 240.048706,115.966805 240.032440,114.796997 
	C240.014481,113.504173 239.274811,113.051048 238.087189,113.255814 
	C237.261002,113.398262 236.346466,113.632767 236.123978,114.542511 
	C235.818451,115.791809 236.743805,116.279442 237.752197,116.583702 
	C238.698120,116.869110 239.722794,116.916481 240.839005,117.730080 
z"/>
<path fill="#191919" opacity="1.000000" stroke="none" 
	d="
M429.668701,104.680008 
	C433.576874,101.693367 437.309967,101.573814 440.820587,104.460091 
	C443.580627,106.729263 444.158295,112.988411 442.231537,116.493721 
	C440.226288,120.141815 436.926666,120.769257 433.276398,120.058067 
	C427.487823,118.930267 425.717194,111.842026 429.668701,104.680008 
z"/>
<path fill="#1A1A1A" opacity="1.000000" stroke="none" 
	d="
M412.954468,116.576462 
	C409.100830,120.616287 404.694092,121.374283 401.348694,118.900711 
	C398.150696,116.536156 396.991791,110.685387 399.085693,106.651611 
	C401.174347,102.627892 404.693817,101.723885 408.782288,102.880814 
	C413.648376,104.257790 415.227570,109.315598 412.954468,116.576462 
z"/>
<path fill="#1D1D1D" opacity="1.000000" stroke="none" 
	d="
M367.145935,105.181595 
	C365.163208,106.896950 363.898682,104.353592 362.056732,104.718674 
	C360.587006,105.009972 358.881317,104.781555 358.561554,106.729218 
	C358.293030,108.364769 359.595490,109.038322 360.891388,109.473785 
	C362.144073,109.894737 363.451660,110.149269 364.718933,110.530731 
	C367.341888,111.320305 368.444977,113.144920 368.178772,115.822746 
	C367.901489,118.611740 366.087982,119.827560 363.532410,120.144035 
	C361.011200,120.456253 358.531738,120.370010 356.430969,118.653946 
	C355.769470,118.113579 355.228790,117.406586 355.778168,116.528931 
	C356.333832,115.641296 357.054169,115.779015 357.857056,116.344086 
	C358.658691,116.908264 359.509460,117.576874 360.427826,117.765213 
	C362.441254,118.178154 364.684784,118.271683 365.412201,115.800919 
	C366.167847,113.234222 363.800690,112.971817 362.187134,112.340233 
	C361.269501,111.981064 360.244720,111.901794 359.314331,111.567909 
	C357.063751,110.760254 355.672546,109.282944 355.895203,106.717049 
	C356.121460,104.109146 357.835724,102.979942 360.179626,102.648720 
	C362.835388,102.273399 365.514832,102.014648 367.145935,105.181595 
z"/>
<path fill="#C5A660" opacity="1.000000" stroke="none" 
	d="
M19.085035,118.195549 
	C14.312995,119.688911 11.362538,116.893661 8.869246,114.108849 
	C6.624421,111.601540 9.464286,109.203644 10.367535,106.909531 
	C11.105396,105.035492 12.785223,103.725624 14.945075,103.453781 
	C16.012245,103.319473 16.451708,104.260452 16.541515,105.026718 
	C17.059269,109.444382 19.321196,113.472137 19.085035,118.195549 
z"/>
<path fill="#1D1D1D" opacity="1.000000" stroke="none" 
	d="
M258.519318,103.095871 
	C259.420380,103.776199 260.379272,104.099373 260.140686,105.140602 
	C259.864502,106.345886 259.005249,106.078232 258.214722,105.762901 
	C257.763153,105.582794 257.376678,105.157249 256.921509,105.082710 
	C254.988907,104.766212 252.476486,103.939034 251.724167,106.389420 
	C250.885895,109.119690 253.588669,109.407234 255.436615,109.889038 
	C258.051147,110.570724 260.742249,111.041847 261.160675,114.440964 
	C261.428894,116.620216 260.860657,118.501328 258.772278,119.443672 
	C255.905792,120.737099 252.970459,120.706467 250.175842,119.129738 
	C249.175308,118.565224 247.948471,117.851646 248.863953,116.456841 
	C249.674240,115.222267 250.530884,116.129387 251.307693,116.748863 
	C252.385727,117.608521 253.617355,117.974045 255.012955,117.954453 
	C256.677338,117.931091 258.053925,117.382027 258.473389,115.709412 
	C258.951263,113.803894 257.525360,113.126373 256.024872,112.642883 
	C255.866959,112.592003 255.719025,112.507355 255.559387,112.465111 
	C252.182053,111.571533 247.865326,111.002747 249.102127,106.153091 
	C250.312241,101.407928 254.494980,102.214035 258.519318,103.095871 
z"/>
<path fill="#C6A65E" opacity="1.000000" stroke="none" 
	d="
M108.516930,172.541534 
	C106.898376,171.578537 105.711708,170.663055 105.056900,169.250290 
	C104.358971,167.744461 103.999855,166.521637 106.377975,166.023331 
	C109.944794,165.275970 113.447220,164.209030 116.957359,163.208969 
	C118.558945,162.752655 119.623550,163.107834 119.806671,164.858551 
	C120.198471,168.604187 117.622025,170.991638 115.582458,173.555069 
	C113.811012,175.781525 111.980011,173.822159 110.200684,173.328995 
	C109.725533,173.197296 109.287781,172.930679 108.516930,172.541534 
z"/>
<path fill="#C6A65E" opacity="1.000000" stroke="none" 
	d="
M46.439339,27.533165 
	C44.054180,23.050518 45.564266,18.896441 48.495781,16.512672 
	C50.850945,14.597569 54.927948,15.689716 57.778900,17.612173 
	C59.971088,19.090418 61.311409,21.093657 57.539295,22.441563 
	C53.710640,23.809673 50.995293,27.394144 46.439339,27.533165 
z"/>
<path fill="#C6A55D" opacity="1.000000" stroke="none" 
	d="
M174.644623,114.594971 
	C173.314926,115.631638 172.272614,116.453247 171.177002,117.196281 
	C169.341553,118.441032 167.247650,119.594742 165.173782,118.332924 
	C162.605606,116.770340 165.079590,114.807098 165.332413,113.064240 
	C165.663269,110.783638 166.537430,108.585289 166.922852,106.308388 
	C167.563614,102.523087 169.547668,102.732513 171.553131,104.926132 
	C173.907059,107.500908 176.492020,110.253990 174.644623,114.594971 
z"/>
<path fill="#C6A65E" opacity="1.000000" stroke="none" 
	d="
M156.048584,45.025604 
	C160.503220,43.572693 164.613495,44.687370 166.591064,47.911377 
	C168.180496,50.502609 167.244003,54.472519 164.958633,57.260609 
	C163.476852,59.068321 161.984726,59.920181 160.558990,56.915031 
	C159.136383,53.916470 157.308212,51.108833 155.629532,48.234024 
	C155.015305,47.182133 154.394440,46.179340 156.048584,45.025604 
z"/>
<path fill="#C6A55D" opacity="1.000000" stroke="none" 
	d="
M52.710972,165.871536 
	C47.637691,165.924789 43.781067,159.742874 45.712994,155.489883 
	C46.575253,153.591690 47.648144,153.556808 49.237534,154.525681 
	C51.792233,156.083038 54.418388,157.522720 56.988277,159.055847 
	C58.069035,159.700623 59.919369,159.798172 59.790985,161.464752 
	C59.671333,163.017899 58.371647,164.085388 56.932186,164.671478 
	C55.706951,165.170349 54.392174,165.449280 52.710972,165.871536 
z"/>
<path fill="#C6A55D" opacity="1.000000" stroke="none" 
	d="
M109.620857,16.375881 
	C107.609528,15.723975 104.998634,16.490955 104.633568,14.242807 
	C104.251114,11.887569 106.239265,10.367312 108.249550,9.376018 
	C111.457520,7.794121 114.780777,5.396011 117.396774,10.320255 
	C118.696320,12.766452 121.302338,15.280587 119.186104,17.963093 
	C117.413391,20.210155 115.077965,17.271038 112.910385,17.134455 
	C111.931686,17.072786 110.972084,16.707815 109.620857,16.375881 
z"/>
<path fill="#C5A55F" opacity="1.000000" stroke="none" 
	d="
M164.510376,66.470741 
	C164.031006,64.952934 163.664337,63.684605 165.221878,63.236572 
	C168.970490,62.158260 171.320908,64.795166 174.046066,66.601967 
	C176.665619,68.338753 175.416885,70.262032 174.645370,72.179466 
	C174.157593,73.391693 173.548813,74.592422 172.785599,75.647308 
	C171.806198,77.001015 170.540359,78.270592 168.704147,78.012581 
	C166.683716,77.728691 167.158844,75.770195 166.767990,74.450943 
	C166.020767,71.928940 165.358322,69.381813 164.510376,66.470741 
z"/>
<path fill="#C6A55D" opacity="1.000000" stroke="none" 
	d="
M69.062004,163.965622 
	C72.024933,164.732254 74.580055,165.454773 77.164200,166.051590 
	C78.504295,166.361115 79.217911,166.910873 79.001076,168.415863 
	C78.618515,171.070999 71.189468,175.615158 69.042595,174.218063 
	C66.948196,172.855118 65.658272,170.583008 64.528938,168.354782 
	C63.753510,166.824814 63.454105,165.012711 64.572334,163.628204 
	C65.818619,162.085159 67.292618,163.642899 69.062004,163.965622 
z"/>
<path fill="#C6A55C" opacity="1.000000" stroke="none" 
	d="
M23.026062,57.013882 
	C22.376415,58.186501 21.922878,59.344604 20.683252,58.702137 
	C17.409954,57.005680 17.090448,53.836811 16.836742,50.635113 
	C16.708769,49.020145 16.016464,47.380699 18.242687,46.498562 
	C21.284521,45.293236 24.157705,43.331024 27.651125,44.956856 
	C29.365730,45.754829 29.046824,46.827583 28.229568,48.148758 
	C26.491421,50.958633 24.853989,53.830811 23.026062,57.013882 
z"/>
<path fill="#C6A55C" opacity="1.000000" stroke="none" 
	d="
M31.331669,29.262880 
	C34.622684,28.881079 37.508888,27.650164 40.443790,29.148748 
	C42.694668,30.298067 43.527168,31.413248 41.174210,33.437557 
	C38.930614,35.367779 36.778599,37.454273 34.869057,39.711281 
	C32.007698,43.093300 30.591265,41.697803 29.683897,38.366764 
	C28.828989,35.228310 29.474710,32.235439 31.331669,29.262880 
z"/>
<path fill="#DE2F49" opacity="1.000000" stroke="none" 
	d="
M141.378906,138.007202 
	C140.486618,137.580246 139.905533,137.019669 139.178375,136.188828 
	C148.412277,125.264198 153.916428,112.758476 157.008179,98.711357 
	C158.117538,98.179749 158.896744,98.210541 159.940628,98.867508 
	C158.046890,113.985161 152.218262,127.054146 141.378906,138.007202 
z"/>
<path fill="#C6A45A" opacity="1.000000" stroke="none" 
	d="
M153.936188,149.613525 
	C151.763611,153.458679 144.648270,154.358765 141.958221,151.672180 
	C140.543228,150.259033 141.323059,149.446915 142.365280,148.443817 
	C144.510117,146.379456 146.580673,144.237946 148.724182,142.172180 
	C149.630173,141.299057 150.307098,139.667084 151.837997,140.169998 
	C153.622879,140.756348 154.077988,142.505447 154.125992,144.222519 
	C154.172104,145.870850 154.036133,147.524277 153.936188,149.613525 
z"/>
<path fill="#C6A55D" opacity="1.000000" stroke="none" 
	d="
M78.395203,11.952641 
	C78.769493,12.904449 79.170029,13.611138 79.012474,14.156626 
	C78.723717,15.156351 65.987381,19.189398 65.022865,18.688658 
	C63.961723,18.137756 64.012405,17.088392 63.977139,16.115782 
	C63.762779,10.204653 69.553284,6.300247 74.666214,8.978108 
	C75.946640,9.648725 77.007820,10.737973 78.395203,11.952641 
z"/>
<path fill="#C6A45A" opacity="1.000000" stroke="none" 
	d="
M94.627319,167.147797 
	C96.481934,167.442719 98.499725,166.190933 99.456139,168.062668 
	C100.400482,169.910797 99.086365,171.546280 97.949036,172.985352 
	C93.854271,178.166473 88.948380,177.916183 85.284805,172.352997 
	C84.450958,171.086823 83.672195,169.674606 84.313812,168.183105 
	C85.112671,166.326065 86.902092,167.389603 88.675018,167.216187 
	C90.810593,166.695053 92.556984,166.762680 94.627319,167.147797 
z"/>
<path fill="#C6A55D" opacity="1.000000" stroke="none" 
	d="
M138.067474,26.178766 
	C137.524002,27.468035 136.950760,28.501068 135.768387,27.866661 
	C132.115372,25.906631 128.531418,23.817356 124.931473,21.759342 
	C123.847939,21.139910 123.758797,20.264902 124.427017,19.265491 
	C126.462425,16.221294 129.679443,16.264538 132.830704,15.866809 
	C135.842865,15.486638 136.421188,17.620657 137.271027,19.566120 
	C138.140823,21.557302 138.859543,23.596079 138.067474,26.178766 
z"/>
<path fill="#C6A55C" opacity="1.000000" stroke="none" 
	d="
M138.232178,157.103531 
	C136.945175,168.483994 133.215866,166.677216 126.649223,164.528366 
	C125.369728,164.109665 124.343933,163.051331 124.105827,161.686386 
	C123.786934,159.858322 125.593567,159.785370 126.625099,159.151810 
	C129.152161,157.599731 131.756378,156.173111 134.279999,154.615662 
	C136.825653,153.044617 137.890411,154.099655 138.232178,157.103531 
z"/>
<path fill="#C6A55C" opacity="1.000000" stroke="none" 
	d="
M30.394814,151.605850 
	C29.858885,148.481583 28.588123,145.772980 29.757786,142.920898 
	C30.850222,140.257141 32.030312,138.795776 34.592319,141.787628 
	C36.528996,144.049255 38.683872,146.178436 40.998138,148.049271 
	C44.301460,150.719635 42.149723,152.131165 39.796608,152.776581 
	C36.769619,153.606812 33.550426,153.577148 30.394814,151.605850 
z"/>
<path fill="#C6A55C" opacity="1.000000" stroke="none" 
	d="
M166.573059,127.800247 
	C167.303284,134.697708 163.946625,138.002914 157.657532,137.095291 
	C155.249039,136.747726 153.772720,136.065475 155.708023,133.338257 
	C157.141190,131.318649 158.170776,129.014694 159.578461,126.974251 
	C160.534286,125.588783 160.419388,122.885826 162.784607,123.135841 
	C164.948700,123.364601 165.862137,125.428238 166.573059,127.800247 
z"/>
<path fill="#C6A55C" opacity="1.000000" stroke="none" 
	d="
M15.487200,63.125149 
	C18.632040,62.824986 20.584274,63.060658 19.139023,66.792168 
	C18.066427,69.561508 17.529854,72.546547 16.850410,75.457886 
	C16.107098,78.642899 14.433558,78.658424 12.212265,76.921532 
	C6.359021,72.344688 7.393660,67.469185 15.487200,63.125149 
z"/>
<path fill="#C6A45A" opacity="1.000000" stroke="none" 
	d="
M25.581833,129.361954 
	C26.450174,131.921371 30.166307,133.745407 28.222363,136.010788 
	C26.068333,138.520981 22.669153,136.954376 19.808573,135.947495 
	C17.399410,135.099503 16.472055,133.629425 16.830620,131.019577 
	C17.244789,128.004990 17.400969,124.984520 20.437963,123.247986 
	C21.589634,122.589470 22.283754,123.202057 22.810831,124.198792 
	C23.665987,125.815926 24.534821,127.425835 25.581833,129.361954 
z"/>
<path fill="#C6A55C" opacity="1.000000" stroke="none" 
	d="
M15.306555,93.654953 
	C14.913538,95.578072 16.141026,97.607399 14.088675,98.449005 
	C12.457396,99.117935 10.829602,98.098007 9.607899,96.931343 
	C7.712041,95.120872 4.762532,92.938950 5.451283,90.622223 
	C6.497061,87.104561 8.991815,83.857079 13.641994,83.159271 
	C14.184566,83.320938 14.369071,83.442947 14.808001,83.777916 
	C15.091333,84.725700 15.120244,85.460510 15.095697,86.560745 
	C16.553398,88.924538 16.699312,91.040085 15.306555,93.654953 
z"/>
<path fill="#C6A45A" opacity="1.000000" stroke="none" 
	d="
M168.452332,87.686264 
	C168.471680,85.941788 167.517059,84.270195 169.254761,83.336510 
	C170.712296,82.553360 172.169937,83.449821 173.441910,84.259361 
	C179.135635,87.883064 179.254990,94.172699 173.552521,97.391510 
	C171.304901,98.660194 168.522125,99.702194 168.746613,94.712357 
	C167.584869,92.298798 167.482635,90.199181 168.452332,87.686264 
z"/>
<path fill="#DE2F49" opacity="1.000000" stroke="none" 
	d="
M136.483948,139.477814 
	C137.100967,139.966248 137.353149,140.345551 137.903534,140.900024 
	C128.628235,150.559387 116.931343,155.792206 103.430618,158.304932 
	C102.849075,158.410767 102.678665,158.448273 102.254578,158.550323 
	C101.836678,158.653931 101.672447,158.692993 101.258064,158.771301 
	C99.803917,158.428253 99.372139,157.588715 99.764160,156.040253 
	C103.088638,154.064590 106.634041,153.934784 109.945854,152.948166 
	C117.799194,150.608582 124.945496,146.925461 131.479004,142.007980 
	C132.909500,140.931305 134.114304,139.441895 136.483948,139.477814 
z"/>
<path fill="#C6A55D" opacity="1.000000" stroke="none" 
	d="
M88.191803,14.383780 
	C84.484268,14.725500 83.213249,13.517817 84.758347,10.411288 
	C86.200874,7.511002 88.722313,4.818148 91.663284,4.550023 
	C94.456139,4.295402 96.969856,7.019514 98.512817,9.560321 
	C99.505898,11.195622 100.892853,13.720083 96.674789,14.193311 
	C93.807137,15.705466 91.260963,15.883370 88.191803,14.383780 
z"/>
<path fill="#C4A359" opacity="1.000000" stroke="none" 
	d="
M146.706131,37.274673 
	C145.625122,36.220993 144.697128,35.494923 143.989716,34.595383 
	C143.038681,33.386051 140.665543,32.810085 141.414749,30.847818 
	C142.123260,28.992138 144.284576,28.576904 146.065872,28.615499 
	C148.610565,28.670639 152.000778,27.899502 153.336472,30.375568 
	C154.777802,33.047440 154.748260,36.504353 153.631683,39.538807 
	C152.915421,41.485355 151.577286,42.677879 149.667892,40.411434 
	C148.818741,39.403500 147.864136,38.484421 146.706131,37.274673 
z"/>
<path fill="#212121" opacity="1.000000" stroke="none" 
	d="
M451.042786,113.914917 
	C450.159454,117.052132 452.094543,116.969154 454.038940,117.137123 
	C457.485565,117.434860 461.904846,116.508034 462.026093,122.028526 
	C462.105774,125.655571 458.600311,127.547729 452.936707,127.253113 
	C446.692749,126.928299 445.141083,124.209846 448.487305,119.143326 
	C449.586914,117.478462 446.699371,115.858093 449.084686,114.251961 
	C449.796570,113.726280 450.243561,113.579674 451.042786,113.914917 
z"/>
<path fill="#CDAF7B" opacity="1.000000" stroke="none" 
	d="
M15.374566,94.021240 
	C15.002305,91.969292 14.977703,89.892372 14.997671,87.370811 
	C18.124372,86.459160 18.986540,82.067749 23.003571,82.696098 
	C24.037024,82.579193 24.726385,82.510872 25.931540,82.703468 
	C26.435377,82.843803 26.515766,82.771835 26.568483,82.783302 
	C27.966597,82.099823 29.292503,81.977249 30.870598,83.221138 
	C31.436201,83.979301 31.567419,84.482468 31.397724,85.373764 
	C29.534775,87.520569 27.887177,85.832863 26.225935,85.585281 
	C22.676960,85.056374 20.116465,86.621834 19.542450,89.769867 
	C19.009687,92.691666 20.936468,95.391014 23.911306,95.890488 
	C26.975447,96.404953 29.089622,94.526810 29.670744,90.688622 
	C29.914423,89.079178 29.705345,87.360878 31.279488,85.814430 
	C32.137203,85.483932 32.657024,85.574821 33.420128,86.173546 
	C34.643471,89.182304 34.718723,91.832497 33.189064,94.762924 
	C32.514870,95.522621 32.183479,95.976967 31.815701,96.728012 
	C30.636232,98.830559 29.179747,100.030113 26.558544,99.352814 
	C25.695311,99.112350 25.136778,99.085022 24.163069,99.117401 
	C19.688717,99.594055 18.203918,96.023010 15.374566,94.021240 
z"/>
<path fill="#0B0B0B" opacity="1.000000" stroke="none" 
	d="
M372.663544,102.746902 
	C374.590637,101.898460 372.886536,99.322449 374.852386,99.077080 
	C377.114136,98.794792 375.826874,101.017479 376.455444,101.941200 
	C377.804657,103.923927 380.373108,101.827415 381.823425,103.521652 
	C381.779236,103.833870 381.848663,104.292038 381.666382,104.439781 
	C380.116516,105.696198 376.936188,103.732849 376.512634,105.982178 
	C375.885315,109.313225 375.836578,112.894836 376.678833,116.315193 
	C377.087341,117.974152 378.452271,118.060089 379.851959,117.884827 
	C380.726471,117.775330 381.947601,117.003479 381.963013,118.723625 
	C381.975555,120.122246 380.692841,120.033485 379.767059,120.137794 
	C376.248474,120.534271 373.890137,119.407433 373.855652,115.415092 
	C373.841339,113.760460 373.936493,112.098488 373.811737,110.452751 
	C373.635468,108.127762 375.095581,105.077621 371.084076,104.275620 
	C370.615997,104.182037 371.239105,102.883919 372.663544,102.746902 
z"/>
<path fill="#0B0B0B" opacity="1.000000" stroke="none" 
	d="
M271.146851,102.808640 
	C272.696625,102.936211 273.941467,102.472725 274.848938,103.542542 
	C274.783539,103.856865 274.825104,104.306412 274.631195,104.461426 
	C273.086914,105.695984 269.899384,103.702286 269.499023,106.060432 
	C268.927887,109.424828 268.726257,113.039787 269.755554,116.450851 
	C270.342743,118.396660 272.027435,118.050903 273.514008,117.724472 
	C274.251343,117.562561 274.792114,117.569557 274.961273,118.427696 
	C275.114838,119.206657 274.689484,119.606667 274.026367,119.932739 
	C271.002533,121.419670 267.266083,119.533455 266.938354,116.125732 
	C266.684174,113.482986 266.904297,110.797707 266.809235,108.135056 
	C266.771667,107.082283 267.437408,105.502403 265.991028,105.115685 
	C261.638000,103.951767 263.936371,103.937935 266.012604,102.476715 
	C269.074127,100.322075 268.778931,99.902657 271.146851,102.808640 
z"/>
<path fill="#DF324D" opacity="1.000000" stroke="none" 
	d="
M109.320740,24.825592 
	C120.455200,26.882010 129.391479,32.588326 138.016205,39.732613 
	C138.205658,40.371159 138.056808,40.825005 137.710587,41.577248 
	C137.309570,42.009632 137.112610,42.145813 136.557373,42.298962 
	C127.932541,36.554016 119.465729,31.162012 109.435532,27.931839 
	C108.616753,27.732231 108.145081,27.620316 107.302353,27.453804 
	C104.659149,26.937614 102.331810,26.675299 99.971817,25.245672 
	C99.429047,24.113167 99.564537,23.381273 100.700996,22.807846 
	C103.172173,23.193731 105.236717,23.587593 107.672005,24.116528 
	C108.372490,24.446762 108.702774,24.641016 109.320740,24.825592 
z"/>
<path fill="#D1B485" opacity="1.000000" stroke="none" 
	d="
M168.301910,87.222305 
	C169.423111,89.356895 168.944183,91.420013 168.881500,93.878265 
	C165.677765,95.104767 164.799911,99.525116 160.586578,99.164352 
	C159.531876,99.134567 158.845047,99.103386 157.812317,99.090103 
	C156.054733,99.963646 154.933441,99.564064 153.879364,97.943115 
	C153.816467,97.333672 153.884430,97.089516 154.250778,96.621765 
	C155.985931,95.741341 157.487579,96.234909 158.956039,96.144188 
	C161.475357,95.988533 163.448563,94.907852 164.305969,92.442978 
	C165.081619,90.213089 164.549377,88.077499 162.758514,86.585190 
	C160.764755,84.923782 158.478928,85.177391 156.244339,86.322067 
	C155.064117,86.926643 154.060989,87.816544 152.498840,88.445755 
	C151.907669,88.496223 151.667480,88.464622 151.125275,88.227585 
	C150.792603,87.779869 150.761963,87.537605 150.982635,87.028839 
	C151.997299,86.263527 152.363617,85.580513 152.175995,84.344833 
	C153.102936,82.323341 154.831146,81.786499 156.890900,81.102722 
	C158.059479,80.966156 158.810303,81.089821 159.823883,81.707092 
	C163.757126,82.111748 165.839386,84.602135 168.301910,87.222305 
z"/>
<path fill="#CCAE78" opacity="1.000000" stroke="none" 
	d="
M100.992767,22.477741 
	C100.798943,23.370424 100.490265,23.940975 100.193481,24.849615 
	C101.210396,26.905914 100.650299,28.141342 98.646408,29.059948 
	C96.926575,28.134460 97.204704,26.770615 97.379959,25.465923 
	C97.801010,22.331270 96.956184,19.673508 93.800011,18.668442 
	C91.354652,17.889734 88.734604,18.209921 87.273064,20.813559 
	C85.491776,23.986803 86.774979,26.526129 89.283218,28.682425 
	C89.534248,28.898233 89.761688,29.140430 90.196968,29.684713 
	C90.578247,30.470573 90.614197,30.964849 90.346649,31.817410 
	C89.483078,32.658691 88.731659,32.739067 87.611282,32.273491 
	C87.239441,31.208569 87.098289,30.435804 85.812759,30.149746 
	C83.232109,29.599354 83.095276,27.702642 82.903175,25.547882 
	C83.071815,24.636053 83.122551,24.095913 83.064796,23.160746 
	C83.480110,19.388002 86.053909,17.298378 87.863731,14.460334 
	C90.279945,14.087901 92.798355,14.048066 95.789825,14.074799 
	C96.456932,17.586893 100.597466,18.759827 100.992767,22.477741 
z"/>
<path fill="#2A2A2A" opacity="1.000000" stroke="none" 
	d="
M418.881104,111.828644 
	C418.881165,107.042084 418.848663,102.730896 418.905548,98.420883 
	C418.918793,97.418381 418.305389,95.798485 420.239960,95.896751 
	C421.948761,95.983551 421.607452,97.451469 421.612091,98.554474 
	C421.631622,103.196754 421.645081,107.839333 421.611847,112.481445 
	C421.592255,115.220840 421.135437,118.121895 424.951050,119.328255 
	C421.597534,120.643494 419.296265,120.358482 418.920563,116.281677 
	C418.799316,114.965889 418.888306,113.630730 418.881104,111.828644 
z"/>
<path fill="#161616" opacity="1.000000" stroke="none" 
	d="
M451.724182,114.160446 
	C450.899292,114.108192 450.474426,114.055252 449.730042,114.038803 
	C449.874023,113.514915 450.044037,112.852859 449.543304,112.304459 
	C447.480286,110.045135 447.201385,107.533539 448.827362,105.045425 
	C450.631165,102.285233 453.414612,102.133957 456.675415,103.004959 
	C457.706177,103.353714 458.302277,103.707130 458.830688,104.684158 
	C461.776245,111.057884 459.674347,113.863663 451.724182,114.160446 
z"/>
<path fill="#1E1E1E" opacity="1.000000" stroke="none" 
	d="
M385.944824,115.800110 
	C385.944824,112.011833 385.906525,108.694656 385.970642,105.379456 
	C385.987549,104.505478 385.875977,102.544189 386.740387,103.022026 
	C389.442719,104.515839 391.715698,102.236580 394.166351,102.765724 
	C394.756744,102.893196 395.595551,102.821053 395.684143,103.726624 
	C395.757599,104.477203 395.329285,105.139961 394.611603,105.086052 
	C387.903717,104.582146 388.902802,109.468689 388.683197,113.494072 
	C388.629089,114.486076 388.793091,115.501640 388.644531,116.473938 
	C388.448944,117.753990 389.515869,120.049095 387.136505,119.885872 
	C384.964447,119.736885 386.360229,117.508247 385.944824,115.800110 
z"/>
<path fill="#DF324D" opacity="1.000000" stroke="none" 
	d="
M160.085419,81.587296 
	C159.483795,81.974586 158.823196,82.026863 157.832306,82.012543 
	C155.730545,81.496399 155.975494,79.929718 155.648773,78.266083 
	C155.536087,76.856453 155.708038,75.813187 155.133316,74.486389 
	C153.201675,66.988548 148.671921,60.885010 147.280029,53.229607 
	C147.521393,52.609577 147.670990,52.381496 148.221283,52.235970 
	C152.517120,57.341358 155.108093,63.021019 157.067139,69.397346 
	C157.359680,70.309433 157.476440,70.897545 157.739288,71.739418 
	C158.020111,72.319229 158.130310,72.652016 158.195251,73.246666 
	C158.231033,74.146736 158.484909,74.749313 158.678116,75.682426 
	C158.962311,76.583908 159.106903,77.196136 159.205078,78.121033 
	C159.124756,78.808304 159.229477,79.142426 159.555176,79.694626 
	C159.780319,80.382378 159.903381,80.817329 160.085419,81.587296 
z"/>
<path fill="#2A2A2A" opacity="1.000000" stroke="none" 
	d="
M287.643616,117.787056 
	C291.098022,113.817329 289.553070,109.471176 289.956177,105.455627 
	C290.055511,104.466278 289.274414,102.862556 291.210419,102.840668 
	C292.911804,102.821426 292.742493,104.192650 292.742157,105.349075 
	C292.741058,108.826813 292.756012,112.304619 292.739197,115.782272 
	C292.716248,120.538162 292.706177,120.538116 288.350555,118.938225 
	C287.808258,118.762482 287.604034,118.495461 287.643616,117.787056 
z"/>
<path fill="#40AA5C" opacity="1.000000" stroke="none" 
	d="
M225.885422,50.888264 
	C223.190247,46.791092 224.066406,43.577839 227.663605,43.419239 
	C230.260696,43.304733 232.305237,44.513916 232.160263,47.430004 
	C231.968231,51.293030 229.426025,51.838043 225.885422,50.888264 
z"/>
<path fill="#0B0B0B" opacity="1.000000" stroke="none" 
	d="
M287.501007,117.515732 
	C287.902283,117.626755 287.917145,117.907837 287.972260,118.609207 
	C282.001709,121.522095 279.006378,119.832649 278.816681,113.772316 
	C278.728760,110.963341 278.772400,108.149002 278.813995,105.337944 
	C278.827362,104.435379 278.471619,103.087273 279.843079,102.990540 
	C281.734039,102.857170 281.159546,104.495804 281.192169,105.499023 
	C281.272827,107.977341 281.234924,110.460091 281.218384,112.940872 
	C281.191223,117.010872 282.953979,118.831833 287.501007,117.515732 
z"/>
<path fill="#DF324D" opacity="1.000000" stroke="none" 
	d="
M139.352829,45.501259 
	C138.806473,44.868744 138.499420,44.492310 137.868256,43.941551 
	C137.142746,43.401711 136.756241,43.026604 136.845093,42.222248 
	C137.000000,41.999908 136.999390,42.000565 136.997070,42.003010 
	C137.427704,41.568001 137.878281,41.150295 138.617447,40.596264 
	C142.125320,44.098392 145.719345,47.502457 148.488297,52.015190 
	C148.376617,52.583458 148.131226,52.848392 147.509613,53.503036 
	C143.857880,51.887058 141.631531,48.908848 139.352829,45.501259 
z"/>
<path fill="#CDAF7B" opacity="1.000000" stroke="none" 
	d="
M100.369820,155.757278 
	C100.373405,156.846725 100.562210,157.570892 100.879456,158.552811 
	C99.934265,161.685226 98.874855,164.570511 95.386246,165.964844 
	C94.839088,166.146454 94.627159,166.256012 94.117867,166.166962 
	C93.672516,165.283386 93.712997,164.531616 94.192558,164.081070 
	C97.486557,160.986282 97.809860,157.228058 97.026749,152.852859 
	C97.521873,152.485977 97.764023,152.398758 98.399399,152.309204 
	C100.412811,152.745285 100.892693,153.835129 100.369820,155.757278 
z"/>
<path fill="#D1B485" opacity="1.000000" stroke="none" 
	d="
M83.042862,159.184250 
	C83.002686,158.172440 83.049377,157.497147 83.002899,156.490265 
	C82.812637,154.827744 83.036964,153.617188 84.545624,152.632263 
	C85.157204,152.536362 85.408195,152.560654 85.976845,152.788300 
	C87.285606,156.030869 86.136635,159.361969 87.548828,162.718750 
	C87.379135,163.603958 87.076385,163.991364 86.246338,164.189392 
	C84.232857,163.018692 83.718918,161.247299 83.042862,159.184250 
z"/>
<path fill="#DBCCA3" opacity="1.000000" stroke="none" 
	d="
M86.048065,164.394073 
	C86.187302,163.897064 86.502762,163.674896 86.939102,163.186188 
	C89.742805,162.378922 91.318161,164.590866 93.675186,165.733276 
	C94.113098,165.981796 94.301277,165.977676 94.770233,166.005219 
	C95.023834,166.236877 94.996643,166.436859 94.956375,166.939911 
	C93.253845,168.482071 91.413612,167.969482 89.340378,167.471710 
	C88.132210,166.382965 87.178253,165.525940 86.048065,164.394073 
z"/>
<path fill="#2A2A2A" opacity="1.000000" stroke="none" 
	d="
M459.105774,104.685310 
	C458.407898,104.550804 457.834198,104.095490 457.132019,103.393753 
	C457.292694,103.000015 457.586151,102.860481 457.870239,102.703964 
	C458.848969,102.164734 458.693481,99.344139 460.490448,100.853050 
	C462.157715,102.253021 460.096130,103.317986 459.105774,104.685310 
z"/>
<path fill="#F3E9EC" opacity="1.000000" stroke="none" 
	d="
M138.838486,40.324821 
	C138.297195,40.729580 137.729355,41.045162 137.078125,41.683098 
	C137.703400,41.935844 138.146561,41.556690 138.342072,40.392967 
	C138.542694,39.982010 138.692917,40.087387 138.838486,40.324821 
z"/>
<path fill="#D1A67D" opacity="1.000000" stroke="none" 
	d="
M26.144466,82.640091 
	C25.751282,82.862511 25.067188,82.881210 23.871361,82.834045 
	C23.359629,82.768188 23.450659,82.338661 23.616419,82.193146 
	C24.472639,82.177208 25.163099,82.306793 26.144466,82.640091 
z"/>
<path fill="#DF3A53" opacity="1.000000" stroke="none" 
	d="
M157.926514,71.678253 
	C157.626007,71.456200 157.342117,70.925957 157.076233,70.078896 
	C157.377213,70.298065 157.660172,70.834061 157.926514,71.678253 
z"/>
<path fill="#DF3A53" opacity="1.000000" stroke="none" 
	d="
M158.854919,75.643394 
	C158.572525,75.377518 158.327316,74.783363 158.116043,73.848877 
	C158.397354,74.110725 158.644730,74.712921 158.854919,75.643394 
z"/>
<path fill="#DE2F49" opacity="1.000000" stroke="none" 
	d="
M139.206665,140.210175 
	C139.151062,139.987411 139.395081,139.645096 139.935913,139.188599 
	C139.990570,139.413147 139.748428,139.751877 139.206665,140.210175 
z"/>
<path fill="#CDAF7B" opacity="1.000000" stroke="none" 
	d="
M15.002865,83.735947 
	C14.750739,83.936775 14.483228,83.797729 14.129976,83.386337 
	C14.314477,83.292961 14.628892,83.386986 15.002865,83.735947 
z"/>
<path fill="#DF3A53" opacity="1.000000" stroke="none" 
	d="
M109.400246,24.604649 
	C109.228409,24.759464 108.848930,24.702126 108.256088,24.448195 
	C108.426025,24.298567 108.809311,24.345531 109.400246,24.604649 
z"/>
<path fill="#CDAF7B" opacity="1.000000" stroke="none" 
	d="
M102.185211,158.697357 
	C102.137947,158.350021 102.355431,158.220779 102.836426,158.300217 
	C102.890015,158.648285 102.673355,158.783829 102.185211,158.697357 
z"/>
<path fill="#DF3A53" opacity="1.000000" stroke="none" 
	d="
M159.688477,79.667496 
	C159.487457,79.629311 159.317642,79.311195 159.153259,78.713387 
	C159.345673,78.751648 159.532684,79.069611 159.688477,79.667496 
z"/>
<path fill="#FBF4F3" opacity="1.000000" stroke="none" 
	d="
M135.753372,45.759258 
	C137.553894,47.405193 136.812943,49.342308 136.816177,51.070381 
	C136.865051,77.273941 136.707123,103.479004 136.966492,129.680069 
	C137.015366,134.617477 135.414154,136.245361 130.424286,135.710022 
	C126.632057,136.725601 123.198341,136.367432 119.385231,136.141891 
	C117.263268,135.181000 115.400208,135.588287 113.599777,135.585571 
	C92.980354,135.554398 72.360153,135.478653 51.742058,135.647125 
	C48.082638,135.677017 46.963226,134.799850 46.988708,130.973694 
	C47.167000,104.202827 47.155430,77.429810 47.000351,50.658661 
	C46.979164,47.001312 47.800930,45.691540 51.644596,45.914238 
	C57.444511,46.250275 63.279202,45.986042 69.564835,45.905640 
	C72.041443,45.211292 74.099655,45.616730 76.552917,45.693855 
	C86.346146,45.881729 95.722755,45.929222 105.565094,45.905212 
	C108.372894,45.191704 110.757645,45.628349 113.545731,45.693489 
	C120.675179,45.881233 127.381020,45.928612 134.551575,45.904602 
	C135.183212,45.764450 135.350143,45.695686 135.753372,45.759258 
z"/>
<path fill="#F3E9EC" opacity="1.000000" stroke="none" 
	d="
M136.687027,41.878296 
	C137.153946,42.437244 137.307892,42.874580 137.502991,43.539570 
	C131.252792,43.730011 124.940346,43.361191 118.676758,43.759876 
	C113.611122,44.082310 109.635056,42.864578 106.583466,38.748047 
	C105.813354,37.709187 104.922836,36.658363 102.954674,36.629433 
	C100.807083,36.128117 100.161362,34.414974 98.609207,33.157890 
	C98.210602,32.803932 98.058167,32.652901 97.719696,32.236580 
	C97.361137,31.569695 97.261002,31.150141 97.598000,29.854525 
	C99.539757,28.534388 99.825493,27.192316 100.168488,25.525990 
	C102.376511,25.533064 104.547646,25.878428 107.087105,26.192230 
	C107.829292,26.153660 108.166908,26.257582 108.709915,26.606285 
	C119.190224,29.738884 128.462372,34.507256 136.687027,41.878296 
z"/>
<path fill="#F5F1F0" opacity="1.000000" stroke="none" 
	d="
M139.126373,45.697159 
	C142.688644,46.990730 144.225555,50.619762 146.898636,53.654282 
	C150.829407,60.019852 153.922180,66.418968 156.031342,73.677475 
	C156.643616,74.827797 156.377686,75.753677 156.776566,76.877579 
	C157.094025,78.491837 157.250885,79.819801 157.454865,81.546844 
	C155.951492,82.624657 154.400986,83.303375 152.495819,84.007553 
	C141.044800,76.349838 136.837585,65.846169 139.091675,52.585564 
	C139.446564,50.497726 139.139954,48.297440 139.126373,45.697159 
z"/>
<path fill="#F4EDED" opacity="1.000000" stroke="none" 
	d="
M26.259521,99.515854 
	C28.185865,99.203720 29.432203,97.622017 31.451851,97.067566 
	C32.075588,97.422325 32.288158,97.954956 32.680241,98.198029 
	C47.319275,107.273705 45.626160,121.462402 44.314663,136.407471 
	C33.922363,125.890396 28.577215,113.663040 26.259521,99.515854 
z"/>
<path fill="#F7EBEF" opacity="1.000000" stroke="none" 
	d="
M82.633240,25.214016 
	C83.776711,26.593107 84.532341,28.010021 85.403442,29.756052 
	C81.690773,34.006084 77.798988,37.867706 74.064781,41.876122 
	C72.498032,43.557911 70.670082,43.672470 68.630325,43.662552 
	C61.813972,43.629406 54.997284,43.665928 47.742016,43.758129 
	C46.365471,41.355206 48.697697,40.765217 49.897896,39.759109 
	C59.296234,31.880636 70.224548,27.327703 82.633240,25.214016 
z"/>
<path fill="#F7EEF0" opacity="1.000000" stroke="none" 
	d="
M153.561493,96.893341 
	C154.486374,98.236229 155.544083,98.733147 157.103943,99.059799 
	C155.618896,113.369537 150.185043,125.906532 139.373962,135.970306 
	C139.067032,129.029053 139.322556,122.130684 139.046875,115.253609 
	C138.900848,111.610367 139.893738,108.883339 142.908661,106.443802 
	C144.967728,101.990417 148.391327,99.274574 152.275406,96.596512 
	C152.849670,96.565712 153.080200,96.606590 153.561493,96.893341 
z"/>
<path fill="#F7EFF1" opacity="1.000000" stroke="none" 
	d="
M31.514523,84.483658 
	C29.962952,83.868576 28.715437,83.346428 27.044559,82.809525 
	C27.841610,68.110405 33.889637,55.694691 44.566761,45.271969 
	C44.853378,52.218449 44.631359,59.199829 44.852100,66.167175 
	C44.960979,69.603714 44.207775,72.334267 41.272652,74.716873 
	C41.042946,75.364006 40.908962,75.675110 40.555977,76.162231 
	C40.168194,76.616882 39.932945,76.864517 39.514435,77.291885 
	C39.097908,77.725647 38.856602,77.971977 38.438477,78.411980 
	C38.026909,78.874702 37.797882,79.148369 37.420341,79.658607 
	C36.954361,80.376770 36.628048,80.853027 36.059189,81.527840 
	C34.473637,82.646347 33.700871,84.402100 31.514523,84.483658 
z"/>
<path fill="#FAEDEE" opacity="1.000000" stroke="none" 
	d="
M85.214188,152.696960 
	C84.449142,153.901184 83.914726,154.809464 83.145020,155.938202 
	C69.005775,154.269043 56.979160,148.497574 45.725201,138.048569 
	C55.046192,138.048569 63.228207,138.022797 71.409836,138.067825 
	C73.307961,138.078262 74.146271,139.796432 75.301392,140.923294 
	C78.513466,144.056778 81.665680,147.251633 85.052490,150.690948 
	C85.522041,151.415192 85.582527,151.895645 85.214188,152.696960 
z"/>
<path fill="#F6EEF2" opacity="1.000000" stroke="none" 
	d="
M100.585747,156.132675 
	C100.044647,155.053223 100.002251,153.948715 98.840256,152.983368 
	C97.898262,152.868668 97.589943,152.560333 97.900177,151.576691 
	C102.345215,147.091080 106.533638,142.919937 110.886002,138.466202 
	C119.681519,136.215942 128.333221,136.310059 137.348434,138.274994 
	C137.524521,138.753586 137.351974,138.887497 137.014114,139.304184 
	C126.376663,148.315414 114.722267,154.482925 100.585747,156.132675 
z"/>
<path fill="#F7E9EB" opacity="1.000000" stroke="none" 
	d="
M87.051514,32.296566 
	C87.961182,31.983631 88.632401,31.927191 89.643677,31.870150 
	C90.209358,31.796099 90.434982,31.722647 90.956619,31.845161 
	C92.264755,35.143921 89.299271,36.251057 87.884392,38.728916 
	C90.625351,38.810600 93.135796,38.829681 95.836212,38.678265 
	C94.939072,36.269573 91.879837,35.181786 92.791359,31.939880 
	C93.635284,31.180834 94.360207,30.984617 95.521889,30.928806 
	C96.442627,31.023233 96.929131,31.212446 97.685959,31.751223 
	C97.997215,31.995510 98.001167,32.000820 98.004578,32.003345 
	C99.665588,33.374817 100.480118,35.559956 102.727859,36.799911 
	C102.989502,36.988953 103.004906,37.005642 103.010742,37.015263 
	C102.659309,40.134289 106.455467,40.524715 107.125076,43.365292 
	C97.016945,43.365292 87.059586,43.365292 76.070923,43.365292 
	C79.990044,39.420605 83.401558,35.986832 87.051514,32.296566 
z"/>
<path fill="#F9E8EB" opacity="1.000000" stroke="none" 
	d="
M33.056801,95.332100 
	C32.885807,92.406296 32.925354,89.744331 32.991196,86.642563 
	C31.915443,84.808838 33.701382,84.473427 34.146709,83.316513 
	C34.461498,82.898750 34.606716,82.748970 35.005527,82.423477 
	C35.801338,82.002403 36.350689,81.768959 36.967022,81.119621 
	C37.418308,80.640594 37.689541,80.384727 38.162712,79.947731 
	C38.616604,79.515900 38.877026,79.274208 39.324917,78.852127 
	C39.757114,78.431595 40.005386,78.195244 40.431374,77.778702 
	C40.841114,77.355568 41.073837,77.113426 41.467674,76.677933 
	C41.843376,76.224968 42.074158,75.980606 42.513565,75.587662 
	C42.862961,75.364220 43.020851,75.305511 43.431084,75.259659 
	C44.718678,75.523239 44.792286,76.329048 44.792187,77.183197 
	C44.791096,86.579033 44.791500,95.974869 44.791500,106.727562 
	C40.417480,102.502525 36.842407,99.049232 33.056801,95.332100 
z"/>
<path fill="#F6EBEA" opacity="1.000000" stroke="none" 
	d="
M151.044189,86.492355 
	C151.207764,86.978134 151.181580,87.193939 151.171631,87.735413 
	C151.361969,88.865524 151.024353,89.479622 150.137634,90.166481 
	C147.561905,90.329323 146.537003,88.327164 144.481720,87.049286 
	C143.932114,89.391838 144.328918,91.574409 144.207886,94.252228 
	C146.113892,93.108200 147.298904,91.227005 149.777435,91.513390 
	C151.046371,92.147209 151.552750,92.966705 151.789795,94.362411 
	C149.802155,99.156784 146.217163,102.079262 141.972900,104.776978 
	C139.963257,106.067009 139.081467,106.078018 139.099884,103.599854 
	C139.168396,94.385002 139.127197,85.169334 139.127197,74.701576 
	C143.523071,79.020050 147.188766,82.621216 151.044189,86.492355 
z"/>
<path fill="#ECEEF2" opacity="1.000000" stroke="none" 
	d="
M106.558914,137.787567 
	C104.399338,142.674133 99.851212,145.551880 96.223923,149.723175 
	C94.559494,150.624191 93.583305,149.913528 92.609512,148.502441 
	C92.513817,145.890488 94.156525,144.704453 95.761337,143.312378 
	C93.265419,143.018097 90.839722,143.446365 88.127983,142.998718 
	C89.517189,144.409256 90.917824,145.517578 91.494217,147.609680 
	C91.114555,149.775009 89.896492,150.416733 87.891739,150.019684 
	C84.061020,146.055954 80.494820,142.372513 76.944870,138.334930 
	C86.668457,136.939957 96.401627,137.743759 106.558914,137.787567 
z"/>
<path fill="#DE2F49" opacity="1.000000" stroke="none" 
	d="
M137.720154,138.335449 
	C129.146790,137.320709 120.549469,138.289993 111.513214,138.134766 
	C113.093414,135.695099 116.140198,137.898880 118.717987,136.331421 
	C122.371124,134.814468 125.853104,135.645859 129.649933,135.667496 
	C131.981979,138.657852 135.731583,135.356506 137.720154,138.335449 
z"/>
<path fill="#DB314A" opacity="1.000000" stroke="none" 
	d="
M106.702759,137.706406 
	C97.298805,138.007889 87.600906,138.012939 77.432068,137.999390 
	C76.667305,137.355865 77.044350,137.009109 77.554939,137.020966 
	C87.171753,137.244385 96.801994,136.496490 106.702759,137.706406 
z"/>
<path fill="#CCAE78" opacity="1.000000" stroke="none" 
	d="
M87.440514,150.052612 
	C88.761566,149.427124 89.895905,149.114883 91.260910,148.599518 
	C91.429688,147.858292 91.649483,147.615997 92.309952,148.045898 
	C93.398956,148.855026 94.378403,149.339706 95.680374,149.895630 
	C96.498268,150.373413 96.993652,150.779953 97.822906,151.224365 
	C98.239792,151.609802 98.322800,151.957382 98.486481,152.561218 
	C98.308548,152.853058 98.049942,152.888596 97.401520,152.961105 
	C93.710159,152.985535 90.362206,152.133896 86.814987,153.432297 
	C86.240273,153.262222 85.989906,153.203903 85.361542,153.069244 
	C85.068825,152.542953 85.154091,152.093018 85.251404,151.301361 
	C85.926895,150.761719 86.590347,150.563782 87.440514,150.052612 
z"/>
<path fill="#DE2F49" opacity="1.000000" stroke="none" 
	d="
M141.907028,104.978516 
	C144.623337,101.709045 147.639816,98.587746 150.902527,95.235657 
	C151.630966,94.854042 152.094711,94.906113 152.712158,96.011688 
	C149.807846,99.869026 146.734055,102.846458 143.360413,105.976105 
	C142.776123,105.794426 142.491653,105.460548 141.907028,104.978516 
z"/>
<path fill="#DF324D" opacity="1.000000" stroke="none" 
	d="
M113.681808,45.586952 
	C111.613449,45.885395 109.257568,45.936935 106.466255,45.911095 
	C108.397308,44.356537 110.905907,44.999081 113.681808,45.586952 
z"/>
<path fill="#DF324D" opacity="1.000000" stroke="none" 
	d="
M76.693069,45.590866 
	C74.942215,45.885784 72.914902,45.937336 70.459068,45.911617 
	C72.062622,44.404694 74.246552,44.967007 76.693069,45.590866 
z"/>
<path fill="#DF324D" opacity="1.000000" stroke="none" 
	d="
M42.243607,76.751556 
	C41.924522,77.342499 41.741817,77.610428 40.992661,77.733154 
	C40.312153,77.338821 40.162552,76.990120 40.090332,76.321320 
	C40.273590,75.762329 40.458721,75.490379 40.875366,75.121002 
	C41.680367,75.056328 42.253857,75.089073 43.255390,75.197174 
	C43.594788,75.422920 43.506142,75.573326 43.197350,75.865555 
	C42.812836,76.171448 42.648460,76.335495 42.243607,76.751556 
z"/>
<path fill="#DF324D" opacity="1.000000" stroke="none" 
	d="
M135.904984,45.740932 
	C135.989670,45.891590 135.496735,45.966297 135.256500,45.899757 
	C135.284271,45.752235 135.552292,45.671253 135.904984,45.740932 
z"/>
<path fill="#F8FCF9" opacity="1.000000" stroke="none" 
	d="
M286.072266,76.119217 
	C282.122253,77.340607 279.483948,76.182022 278.154510,72.694778 
	C276.557159,68.504791 277.926208,62.512657 280.647644,60.867569 
	C283.651184,59.051933 287.356049,60.217545 288.993652,63.493340 
	C291.049530,67.605995 290.037506,72.543266 286.072266,76.119217 
z"/>
<path fill="#F8FCF9" opacity="1.000000" stroke="none" 
	d="
M248.169434,75.869431 
	C244.182907,72.215912 244.408661,67.982185 245.849136,63.770386 
	C247.095779,60.125347 251.253204,58.934906 254.384491,60.981968 
	C257.106567,62.761509 258.413635,68.964584 256.683289,72.851105 
	C255.064270,76.487633 252.204117,77.447411 248.169434,75.869431 
z"/>
<path fill="#F8FCF9" opacity="1.000000" stroke="none" 
	d="
M372.570618,76.737793 
	C369.942902,71.568764 370.294159,71.203804 379.427612,69.053131 
	C380.548553,75.401520 379.011566,77.263695 372.570618,76.737793 
z"/>
<path fill="#F2F1F0" opacity="1.000000" stroke="none" 
	d="
M313.843506,112.128159 
	C314.630005,114.137192 318.270874,115.400238 315.801117,117.337883 
	C313.725250,118.966484 310.567291,118.511841 308.784241,115.886154 
	C307.294556,113.692505 307.593964,111.245026 309.670166,109.641205 
	C312.182983,107.700104 312.314240,111.039597 313.843506,112.128159 
z"/>
<path fill="#F4F3F2" opacity="1.000000" stroke="none" 
	d="
M310.727722,102.707031 
	C310.669434,100.071266 311.707458,98.845757 314.041016,99.092255 
	C315.387451,99.234489 316.104004,100.138725 316.161407,101.457024 
	C316.243134,103.333527 315.290070,104.624077 313.620880,105.373100 
	C311.235718,106.443390 311.399933,104.289108 310.727722,102.707031 
z"/>
<path fill="#EAEAEA" opacity="1.000000" stroke="none" 
	d="
M342.101532,102.581497 
	C342.736298,101.882408 342.752563,99.782715 343.788391,101.357330 
	C344.835846,102.949562 344.969116,105.112366 345.832733,106.862427 
	C347.946564,111.146034 345.913910,111.708611 342.189850,111.513268 
	C339.808044,111.388329 339.340027,110.564682 340.083588,108.518784 
	C340.755707,106.669579 341.370422,104.799522 342.101532,102.581497 
z"/>
<path fill="#EDEDED" opacity="1.000000" stroke="none" 
	d="
M241.084290,117.923157 
	C239.571289,116.263695 238.272125,118.636314 236.689804,118.193649 
	C235.338593,117.815659 234.147202,117.559311 233.834503,115.992607 
	C233.505005,114.341606 233.968643,112.922775 235.636536,112.445915 
	C237.456833,111.925476 240.279892,110.857071 241.071442,111.639824 
	C242.707092,113.257324 240.764755,115.538277 240.665894,117.761597 
	C241.055923,117.979805 241.049881,117.913338 241.084290,117.923157 
z"/>
<path fill="#F3F3F3" opacity="1.000000" stroke="none" 
	d="
M432.746582,105.413727 
	C435.634491,104.597466 438.202484,104.433578 439.664459,107.064087 
	C441.193207,109.814766 441.135834,112.820419 439.713165,115.641258 
	C438.811127,117.429855 437.124329,118.058868 435.142303,117.980476 
	C432.911102,117.892242 431.314514,116.852951 430.660400,114.740662 
	C429.637238,111.436577 429.532562,108.226181 432.746582,105.413727 
z"/>
<path fill="#F9F9F9" opacity="1.000000" stroke="none" 
	d="
M400.980225,112.721222 
	C400.933777,109.095955 400.877380,105.762939 405.021271,104.995239 
	C407.929810,104.456390 410.195496,105.396919 411.034485,108.608032 
	C412.171997,112.961784 410.778687,117.098373 407.642029,117.769173 
	C403.936218,118.561676 401.595947,117.006210 400.980225,112.721222 
z"/>
<path fill="#F9F9F9" opacity="1.000000" stroke="none" 
	d="
M451.562927,124.804947 
	C449.736908,124.006271 448.564240,123.094040 449.235291,121.294632 
	C449.805725,119.765053 451.355255,119.567879 452.556335,119.852119 
	C454.824799,120.388939 458.995331,118.242264 458.987457,122.002861 
	C458.978638,126.225441 454.700043,124.693619 451.562927,124.804947 
z"/>
<path fill="#F4F3F2" opacity="1.000000" stroke="none" 
	d="
M30.414980,86.162354 
	C30.960041,87.579956 31.157593,88.886345 31.209717,90.198509 
	C31.350578,93.744560 29.890249,96.317818 26.375219,97.334991 
	C23.072083,98.290833 20.465048,96.883537 18.764851,94.176254 
	C17.119148,91.555740 17.431345,88.663750 19.424198,86.339485 
	C21.716318,83.666183 24.707306,83.164146 27.926598,84.711296 
	C28.663071,85.065247 29.311949,85.601448 30.414980,86.162354 
z"/>
<path fill="#DF2D48" opacity="1.000000" stroke="none" 
	d="
M35.264839,83.386444 
	C34.669334,84.384560 34.053543,85.093765 33.227619,86.002853 
	C32.530045,86.181633 32.042606,86.160515 31.191990,86.205170 
	C30.828815,86.270935 30.818634,86.181534 30.773020,86.178131 
	C30.866396,85.785057 31.005386,85.395386 31.177423,84.698227 
	C32.415203,83.273933 33.619938,82.157135 35.095543,80.902748 
	C35.944588,80.492348 36.548756,80.409859 37.578957,80.756470 
	C37.493759,81.577126 37.008514,82.158890 36.259338,82.857315 
	C35.681343,82.627533 35.427517,82.647186 35.264839,83.386444 
z"/>
<path fill="#DF3A53" opacity="1.000000" stroke="none" 
	d="
M108.752419,26.533840 
	C108.593872,26.666349 108.230568,26.609808 107.661346,26.356968 
	C107.819511,26.222046 108.183586,26.283417 108.752419,26.533840 
z"/>
<path fill="#FBFAF6" opacity="1.000000" stroke="none" 
	d="
M152.162949,88.221893 
	C156.664444,83.396523 161.313843,82.600800 164.358627,86.175636 
	C166.359909,88.525291 166.816284,91.377411 165.204803,94.023994 
	C163.140793,97.413773 159.970718,98.356461 155.850037,96.949944 
	C154.866043,96.782486 154.265717,96.485649 153.509033,96.049965 
	C153.406082,95.734055 153.339981,95.729729 153.334656,95.697037 
	C151.368607,93.550850 150.312485,91.240509 152.162949,88.221893 
z"/>
<path fill="#C5A660" opacity="1.000000" stroke="none" 
	d="
M152.231796,88.056534 
	C151.699768,90.466148 152.488983,92.691551 153.335175,95.287155 
	C152.781693,95.521950 152.234055,95.379562 151.417572,95.121025 
	C150.839951,94.216591 150.531158,93.428291 150.085327,92.340530 
	C149.504227,91.541130 149.654968,91.029594 149.992889,90.249115 
	C150.340240,89.502441 150.613266,89.022491 151.037079,88.301819 
	C151.419846,88.059959 151.651825,88.058830 152.231796,88.056534 
z"/>
<path fill="#C5A660" opacity="1.000000" stroke="none" 
	d="
M153.225464,96.001007 
	C153.967087,95.972290 154.528107,96.210518 155.299042,96.693451 
	C155.225418,96.963631 154.941879,96.989098 154.235291,97.076889 
	C153.812241,97.139206 153.338791,97.047974 153.110229,96.969788 
	C152.936066,96.683708 152.990463,96.475830 153.225464,96.001007 
z"/>
<path fill="#F7F6F3" opacity="1.000000" stroke="none" 
	d="
M90.265450,30.350693 
	C85.393890,27.747671 83.832405,24.341675 85.711151,20.648531 
	C87.632805,16.871050 90.894592,16.116226 94.594597,17.293751 
	C98.196289,18.439987 99.519127,22.394310 98.090919,26.784397 
	C97.937202,27.256880 97.824089,27.742571 97.832947,28.607906 
	C97.973763,28.993679 98.001602,28.998945 97.996124,28.985954 
	C97.526558,29.427338 97.146111,29.942833 96.644363,30.777275 
	C96.240540,31.142271 96.048981,31.254789 95.525482,31.417381 
	C93.666985,31.054447 92.008537,31.301874 90.265450,30.350693 
z"/>
<path fill="#D1B485" opacity="1.000000" stroke="none" 
	d="
M89.985870,30.445713 
	C91.694847,30.387037 93.410347,30.613129 95.496811,30.855835 
	C96.009651,30.990705 96.151527,31.108967 96.226837,31.496168 
	C95.215508,31.889914 94.270767,32.014721 92.857452,32.226807 
	C92.388878,32.314083 91.995468,32.439926 91.799149,32.375835 
	C91.331017,32.245415 91.059212,32.179085 90.385559,31.991152 
	C89.986618,31.489861 89.989510,31.110170 89.985870,30.445713 
z"/>
<path fill="#EAEAEA" opacity="1.000000" stroke="none" 
	d="
M454.801849,111.888565 
	C451.793945,111.995369 450.310364,110.689377 450.396332,108.096756 
	C450.454498,106.342491 451.375000,104.975929 453.417328,104.819565 
	C455.169250,104.685440 456.811279,104.905006 457.535736,106.746613 
	C458.490875,109.174629 457.591217,110.890045 454.801849,111.888565 
z"/>
<path fill="#DF3A53" opacity="1.000000" stroke="none" 
	d="
M156.961945,76.822548 
	C156.662674,76.338402 156.388199,75.512924 156.140778,74.359619 
	C156.989426,74.664848 157.015488,75.563873 156.961945,76.822548 
z"/>
<path fill="#F2F1F0" opacity="1.000000" stroke="none" 
	d="
M86.347115,153.665771 
	C89.641411,150.970764 92.894508,150.120270 96.694870,152.821899 
	C100.052460,158.779419 99.764687,159.997955 94.014557,165.647614 
	C91.201355,166.536972 89.640289,164.432022 87.367523,163.085052 
	C84.861420,160.134003 84.360031,157.185211 86.347115,153.665771 
z"/>
<path fill="#C5612C" opacity="1.000000" stroke="none" 
	d="
M62.753212,104.016953 
	C65.037476,103.560486 66.706009,104.077431 67.631508,106.005669 
	C68.565582,107.951782 67.008026,109.100105 65.908722,110.283279 
	C62.632298,113.809677 59.300632,117.284752 56.099659,120.664673 
	C53.847389,119.609375 54.577320,118.079308 54.573841,116.928307 
	C54.519394,98.938606 54.529205,80.948692 54.547260,62.958847 
	C54.548592,61.632683 54.577919,60.275669 54.848057,58.986168 
	C55.855259,54.178238 59.678413,52.505295 63.279366,55.777130 
	C69.559174,61.482983 75.416252,67.654976 81.429993,73.652153 
	C82.880791,75.098953 82.858757,76.772537 82.413124,78.729729 
	C81.231697,83.918564 80.221680,89.150253 79.286919,94.390480 
	C77.981575,101.708229 80.744568,104.545921 87.957085,103.300209 
	C93.038475,102.422577 98.109512,101.460182 103.145912,100.356529 
	C105.998932,99.731323 108.230537,100.159500 110.348465,102.380501 
	C115.284767,107.557053 120.412132,112.552208 125.492661,117.590027 
	C127.472878,119.553604 129.156433,121.694954 128.084900,124.624390 
	C126.996918,127.598755 124.278244,128.103836 121.513405,128.107224 
	C101.861397,128.131287 82.209335,128.120056 61.088642,128.120056 
	C65.887787,123.367996 69.706291,119.160622 74.002090,115.515770 
	C76.104439,113.732002 78.765709,115.219414 78.597923,117.764153 
	C78.343323,121.625504 79.877914,120.288956 81.345924,119.118019 
	C86.099976,115.326012 91.423988,113.430695 97.778610,113.378929 
	C91.080864,109.736473 82.203209,111.933411 76.356110,105.808434 
	C72.173157,99.734215 71.787025,92.518883 70.261955,85.272720 
	C69.353264,84.528435 68.749977,83.930473 67.758286,84.755951 
	C70.267921,91.566803 66.838394,96.518311 63.186287,101.759895 
	C62.565056,102.617638 61.982460,103.134506 62.753212,104.016953 
z"/>
<path fill="#CB6A30" opacity="1.000000" stroke="none" 
	d="
M121.792969,66.780846 
	C118.338722,72.531700 118.157188,73.759445 123.362724,78.239601 
	C128.505661,82.665871 130.573135,87.734268 129.964844,94.423500 
	C129.515198,99.368210 129.898239,104.386726 129.858429,109.371941 
	C129.848236,110.648132 130.312424,112.268105 128.863007,112.974289 
	C127.342438,113.715134 126.485260,112.264114 125.579918,111.365242 
	C119.095505,104.927155 112.662781,98.436638 106.141037,92.036766 
	C104.239998,90.171265 103.393646,88.912170 106.625992,87.473877 
	C113.050911,84.614998 113.430176,78.007835 114.850601,72.434471 
	C115.545273,69.708771 112.833138,67.778465 109.341522,67.876083 
	C108.192116,69.559814 106.662399,68.907661 105.441925,69.130615 
	C101.707558,69.812820 97.963623,71.075249 96.315331,74.535667 
	C93.943596,79.514862 92.135483,78.311539 89.157043,75.141861 
	C83.351540,68.963638 77.191254,63.119667 71.224434,57.091206 
	C70.368141,56.226067 68.770332,55.510918 69.556190,53.877048 
	C70.177864,52.584553 71.582130,52.965698 72.697273,52.961365 
	C79.848984,52.933578 87.001266,52.992268 94.152481,52.926861 
	C96.655426,52.903969 98.677521,53.782963 100.407280,55.503540 
	C102.175995,57.262852 103.897667,59.072613 105.722061,60.772125 
	C109.766968,64.540146 113.155167,63.957268 115.609589,59.102402 
	C116.208565,57.917625 116.682228,56.669888 117.224808,55.456142 
	C119.194023,51.051044 122.362137,48.598343 127.803406,49.351871 
	C127.169754,53.367645 128.907822,55.045795 133.004593,55.154354 
	C133.759201,61.938690 132.053101,63.886139 122.376556,67.173279 
	C121.112701,66.242386 120.926476,65.107788 120.604004,64.023033 
	C120.371201,63.239902 120.027184,62.450027 119.056877,62.383869 
	C118.321114,62.333698 117.829880,62.796593 117.734283,63.500790 
	C117.613609,64.389702 118.044510,65.051773 118.852821,65.443954 
	C119.722618,65.865967 120.738403,65.935776 121.792969,66.780846 
z"/>
<path fill="#34B5E3" opacity="1.000000" stroke="none" 
	d="
M109.970345,72.043365 
	C111.767197,73.906532 111.991333,75.741226 110.209885,77.275688 
	C109.024147,78.297028 107.391968,78.328354 106.084267,77.387230 
	C104.822380,76.479095 104.224197,75.113686 104.997581,73.577095 
	C105.989189,71.606934 107.399727,70.536972 109.970345,72.043365 
z"/>
<path fill="#F5DC1C" opacity="1.000000" stroke="none" 
	d="
M133.328568,54.868893 
	C131.207748,55.931782 129.019699,56.986290 127.154015,54.761921 
	C125.695358,53.022808 126.816498,51.462341 127.947624,49.706154 
	C132.027466,49.012989 133.183044,51.258453 133.328568,54.868893 
z"/>
<path fill="#DF349B" opacity="1.000000" stroke="none" 
	d="
M87.353928,95.978561 
	C88.428406,98.457161 88.079353,100.087273 85.708603,101.020210 
	C84.278214,101.583084 83.028923,101.132355 82.205345,100.115204 
	C81.225800,98.905434 81.064796,97.346008 82.087593,96.010254 
	C83.614464,94.016174 85.418365,94.487976 87.353928,95.978561 
z"/>
<path fill="#61A666" opacity="1.000000" stroke="none" 
	d="
M103.413300,83.378159 
	C102.122131,86.128662 100.120361,85.858772 98.457329,84.776634 
	C97.319168,84.036011 96.821297,82.518173 97.575508,80.897141 
	C98.272598,79.398926 99.391365,78.383324 100.881134,78.792236 
	C102.829269,79.326973 104.382767,80.570229 103.413300,83.378159 
z"/>
<path fill="#74529A" opacity="1.000000" stroke="none" 
	d="
M75.977371,105.980881 
	C76.136566,106.591408 76.245590,107.254402 76.480667,107.869209 
	C77.393585,110.256905 76.402046,111.736115 74.144310,112.318916 
	C71.975960,112.878639 70.657585,111.366104 70.320366,109.606499 
	C69.936531,107.603668 71.179108,106.186172 73.304070,105.894455 
	C73.925461,105.809151 74.589127,106.031754 75.640564,106.062080 
	C76.047714,106.010933 75.985107,106.011223 75.977371,105.980881 
z"/>
<path fill="#CB4D53" opacity="1.000000" stroke="none" 
	d="
M95.820969,89.432869 
	C95.544365,91.578735 95.134239,93.667313 92.635864,92.884621 
	C91.371292,92.488441 89.475822,92.104218 89.281906,90.373451 
	C89.144623,89.148163 89.602921,87.835564 91.019112,87.134483 
	C93.394249,85.958672 94.690788,87.089500 95.820969,89.432869 
z"/>
<path fill="#F0DDCE" opacity="1.000000" stroke="none" 
	d="
M63.007172,103.737854 
	C62.262260,105.050194 61.584213,106.157875 59.982399,105.908310 
	C60.016079,104.032242 61.514030,103.410995 62.726665,102.220352 
	C63.021435,102.513084 63.011456,102.958405 63.007172,103.737854 
z"/>
<path fill="#E9CBB6" opacity="1.000000" stroke="none" 
	d="
M68.042938,84.998329 
	C66.659935,84.314590 64.922096,83.171875 66.121925,82.273827 
	C67.726234,81.073021 68.606216,83.421753 69.859146,84.681824 
	C69.467224,84.996056 68.949020,84.982262 68.042938,84.998329 
z"/>
<path fill="#199AD6" opacity="1.000000" stroke="none" 
	d="
M109.958420,31.070366 
	C116.013664,32.972519 121.437363,35.280510 126.421623,38.982761 
	C116.268616,41.728054 111.100922,39.646164 104.422600,30.286678 
	C106.314781,29.344549 107.877937,30.701859 109.958420,31.070366 
z"/>
<path fill="#DF2D48" opacity="1.000000" stroke="none" 
	d="
M103.256538,36.673279 
	C99.990646,37.014351 99.198013,34.283920 97.776001,32.317665 
	C101.292755,31.623425 102.024063,34.477341 103.256538,36.673279 
z"/>
<path fill="#DF2D48" opacity="1.000000" stroke="none" 
	d="
M96.479286,31.967926 
	C96.160255,31.765106 96.108406,31.288494 95.988091,31.080471 
	C95.867775,30.872446 95.909317,30.503559 95.951210,30.322739 
	C96.350815,29.684719 96.818291,29.488068 97.737976,29.763426 
	C98.278343,30.486084 98.475952,30.996548 98.335388,31.751261 
	C97.667641,32.533237 97.268440,32.594612 96.479286,31.967926 
z"/>
<path fill="#CCAE78" opacity="1.000000" stroke="none" 
	d="
M98.091576,29.721958 
	C97.616684,30.006121 97.152641,30.036619 96.340851,30.104519 
	C96.031334,29.282778 96.617783,28.928759 97.660408,28.831873 
	C98.027901,29.138075 98.065163,29.303186 98.091576,29.721958 
z"/>
<path fill="#17A85C" opacity="1.000000" stroke="none" 
	d="
M152.457977,75.324707 
	C152.826920,76.618408 153.249649,77.551926 152.699615,78.521027 
	C144.267563,73.614227 140.950165,66.478737 143.663025,56.399620 
	C148.178482,61.966656 150.414078,68.388412 152.457977,75.324707 
z"/>
<path fill="#1DAB61" opacity="1.000000" stroke="none" 
	d="
M32.193863,108.789848 
	C31.850065,106.654770 30.482727,105.079254 31.236320,103.148003 
	C40.056629,107.865974 42.733551,115.270401 40.376575,125.278801 
	C36.272396,120.454239 34.302315,114.803070 32.193863,108.789848 
z"/>
<path fill="#3F4296" opacity="1.000000" stroke="none" 
	d="
M79.101547,30.124397 
	C74.678185,38.769749 67.450821,41.758064 57.077721,39.151550 
	C63.986473,34.470291 70.927719,31.303257 79.101547,30.124397 
z"/>
<path fill="#535F67" opacity="1.000000" stroke="none" 
	d="
M150.514862,112.430405 
	C148.573242,117.034912 146.796951,121.292252 143.859909,125.015686 
	C140.912598,115.355057 143.531418,108.894630 152.868820,102.978477 
	C152.924194,106.304962 151.360580,109.093781 150.514862,112.430405 
z"/>
<path fill="#525E66" opacity="1.000000" stroke="none" 
	d="
M36.260468,74.201309 
	C34.379562,75.786438 33.305695,77.768417 30.780033,78.780708 
	C32.301178,70.455353 35.277088,63.174225 40.325211,56.700722 
	C40.444771,62.775524 43.254913,69.394333 36.260468,74.201309 
z"/>
<path fill="#DF324D" opacity="1.000000" stroke="none" 
	d="
M38.208454,80.896797 
	C37.397552,80.960381 36.816097,80.925407 35.800529,80.827797 
	C35.763233,80.277512 36.160046,79.789864 36.840759,79.161865 
	C37.252861,78.847466 37.381065,78.673409 37.764420,78.299248 
	C38.215302,77.817223 38.411034,77.535301 38.844963,77.143509 
	C39.706917,76.430222 40.094353,76.962784 40.686523,77.572563 
	C40.857212,77.813454 40.926998,77.904709 40.961876,77.950348 
	C40.924149,78.336922 40.744888,78.607071 40.231377,78.904633 
	C39.784683,79.226860 39.563396,79.448723 39.169815,79.830582 
	C38.912041,80.330711 38.724773,80.599205 38.208454,80.896797 
z"/>
<path fill="#DF2D48" opacity="1.000000" stroke="none" 
	d="
M40.883690,77.551559 
	C40.417435,77.615364 39.977661,77.417274 39.310520,77.126404 
	C39.150219,76.686897 39.331631,76.417053 39.857925,76.129181 
	C40.362362,76.452744 40.636265,76.871201 40.883690,77.551559 
z"/>
<path fill="#DF2D48" opacity="1.000000" stroke="none" 
	d="
M37.808529,78.182762 
	C37.900204,78.371506 37.725300,78.601669 37.309753,78.905571 
	C37.183285,78.707825 37.340893,78.456116 37.808529,78.182762 
z"/>
<path fill="#E52C34" opacity="1.000000" stroke="none" 
	d="
M72.851868,143.736786 
	C74.825775,146.656738 78.768829,147.629807 78.741165,151.555267 
	C75.609154,151.467422 72.874016,149.965958 70.007683,148.995560 
	C65.630264,147.513580 61.516125,145.427597 57.805996,142.239731 
	C62.754112,142.430130 67.834320,139.939667 72.851868,143.736786 
z"/>
<path fill="#3A3D93" opacity="1.000000" stroke="none" 
	d="
M104.872604,151.333694 
	C109.725685,142.494247 113.959328,140.721771 126.791344,142.173874 
	C119.962944,147.160522 112.781593,149.899338 104.872604,151.333694 
z"/>
<path fill="#6AC8D2" opacity="1.000000" stroke="none" 
	d="
M91.414536,32.605709 
	C91.780220,32.290138 91.958206,32.282497 92.262833,32.301456 
	C94.300529,34.579346 96.212189,36.844608 98.493210,39.547569 
	C94.110527,39.547569 90.108864,39.547569 85.908150,39.547569 
	C86.629379,36.602123 89.930534,35.498558 91.414536,32.605709 
z"/>
<path fill="#E23363" opacity="1.000000" stroke="none" 
	d="
M34.380325,90.294548 
	C36.196815,87.987572 37.825340,85.968658 39.453865,83.949745 
	C39.852791,84.234818 40.251720,84.519897 40.650646,84.804977 
	C40.650646,88.633514 40.650646,92.462051 40.650646,96.600983 
	C37.603222,95.553886 35.878475,93.090637 34.380325,90.294548 
z"/>
<path fill="#DF324D" opacity="1.000000" stroke="none" 
	d="
M35.513382,83.551346 
	C35.252728,83.281136 34.942543,82.777512 35.835358,82.829300 
	C35.910812,83.125099 35.826221,83.276215 35.513382,83.551346 
z"/>
<path fill="#DF2D48" opacity="1.000000" stroke="none" 
	d="
M42.236725,76.917900 
	C42.105259,76.688354 42.288239,76.430519 42.764641,76.118729 
	C42.938644,76.362465 42.769680,76.637405 42.236725,76.917900 
z"/>
<path fill="#DF2D48" opacity="1.000000" stroke="none" 
	d="
M39.236778,79.910110 
	C39.108688,79.675644 39.298695,79.418381 39.786758,79.111893 
	C39.827137,79.277710 39.650490,79.552589 39.236778,79.910110 
z"/>
<path fill="#70BB56" opacity="1.000000" stroke="none" 
	d="
M149.727539,89.934784 
	C150.793686,90.501793 150.377930,91.050270 150.028305,91.818054 
	C147.042755,92.347527 146.207932,95.645851 143.299286,96.682388 
	C143.299286,92.607994 143.299286,88.788086 143.299286,84.085243 
	C145.648239,86.323608 147.518051,88.105392 149.727539,89.934784 
z"/>
<path fill="#08AAE8" opacity="1.000000" stroke="none" 
	d="
M92.691650,148.077240 
	C92.419510,148.370331 92.114700,148.258545 92.114700,148.258545 
	C92.114700,148.258545 91.790321,148.270966 91.640953,148.333679 
	C89.709335,146.512207 87.927078,144.628006 85.671158,142.243027 
	C90.033630,141.356415 93.765793,141.704651 98.429977,141.980881 
	C96.235191,144.311020 94.599495,146.047577 92.691650,148.077240 
z"/>
<path fill="#5A5B9A" opacity="1.000000" stroke="none" 
	d="
M25.850216,89.182892 
	C25.517244,90.955765 27.653423,92.060104 26.289011,93.799751 
	C24.835552,92.600616 23.968643,91.102440 23.946171,89.357666 
	C23.930290,88.124733 24.717344,87.573174 25.850216,89.182892 
z"/>
<path fill="#A0A1C3" opacity="1.000000" stroke="none" 
	d="
M157.002335,91.530884 
	C157.207077,89.523567 156.203369,87.224358 159.197525,87.159264 
	C159.995575,87.141922 161.034775,86.946869 161.384491,87.845535 
	C161.905197,89.183586 160.210403,88.664925 160.021713,89.156151 
	C159.656967,90.105736 159.669220,91.203644 159.549774,92.242889 
	C159.443390,93.168343 158.978073,93.836449 158.029480,93.783371 
	C156.855270,93.717667 157.088806,92.688057 157.002335,91.530884 
z"/>
<path fill="#8384B2" opacity="1.000000" stroke="none" 
	d="
M94.211090,24.862040 
	C89.425827,26.098656 89.265450,26.101040 89.250801,25.115423 
	C89.230103,23.723427 88.972755,21.801172 89.737885,21.070982 
	C90.626289,20.223135 92.795662,22.841316 93.993752,20.418102 
	C95.379135,21.689766 93.814201,23.174238 94.211090,24.862040 
z"/>
<path fill="#F7EEE6" opacity="1.000000" stroke="none" 
	d="
M119.183792,79.990463 
	C120.703201,82.002068 120.757706,83.971741 120.507675,85.969482 
	C120.143639,88.878143 119.806427,91.761078 121.627785,94.831482 
	C119.274277,93.304619 116.925545,91.770325 114.564934,90.254517 
	C113.606758,89.639252 113.089531,88.946388 113.930748,87.862816 
	C116.282906,84.832947 116.475502,81.273132 116.054100,77.594627 
	C117.835609,77.629646 118.085052,79.044281 119.183792,79.990463 
z"/>
<path fill="#FBF4F3" opacity="1.000000" stroke="none" 
	d="
M89.806366,61.998009 
	C92.425354,62.973637 94.966560,62.176395 97.417686,62.172665 
	C100.036575,62.168678 102.367386,62.506805 103.830490,65.022530 
	C93.832161,69.959396 93.743355,69.957642 90.009567,64.475128 
	C89.588455,63.599232 89.482880,63.002922 89.806366,61.998009 
z"/>
<path fill="#F0DDCE" opacity="1.000000" stroke="none" 
	d="
M122.026642,67.005981 
	C121.083252,67.031990 120.110931,67.072685 119.139069,67.063911 
	C116.895256,67.043678 115.725060,65.727722 115.705078,63.652420 
	C115.687027,61.776859 116.963165,60.484695 118.793732,60.432320 
	C120.843971,60.373661 122.214279,61.564487 122.255203,63.772614 
	C122.270294,64.586601 121.986626,65.406128 121.923981,66.639923 
	C122.008759,67.056717 121.997932,66.998199 122.026642,67.005981 
z"/>
<path fill="#E9CBB6" opacity="1.000000" stroke="none" 
	d="
M90.002037,61.315132 
	C90.024574,62.185017 89.980133,62.751152 89.898109,63.741673 
	C88.847000,63.233963 87.473526,62.325165 88.165199,60.741909 
	C88.623260,59.693394 89.405273,60.417313 90.002037,61.315132 
z"/>
<path fill="#FBF4F3" opacity="1.000000" stroke="none" 
	d="
M108.986557,68.025261 
	C108.903709,67.940254 108.801376,67.867920 108.699036,67.795578 
	C108.785767,67.787903 108.872498,67.780228 108.947044,67.922607 
	C108.934860,68.072662 108.967064,68.037933 108.986557,68.025261 
z"/>
</svg>